<svg width="64" height="64" viewBox="0 0 64 64" fill="none" xmlns="http://www.w3.org/2000/svg">
<path d="M0 32C0 14.3269 14.3269 0 32 0C49.6731 0 64 14.3269 64 32C64 49.6731 49.6731 64 32 64C14.3269 64 0 49.6731 0 32Z" fill="#F5FFF7"/>
<path d="M32 23.6667V47.0001" stroke="#333333" stroke-width="2" stroke-linecap="round" stroke-linejoin="round"/>
<path d="M16.9997 42C16.5576 42 16.1337 41.8244 15.8212 41.5118C15.5086 41.1993 15.333 40.7754 15.333 40.3333V18.6667C15.333 18.2246 15.5086 17.8007 15.8212 17.4882C16.1337 17.1756 16.5576 17 16.9997 17H25.333C27.1011 17 28.7968 17.7024 30.0471 18.9526C31.2973 20.2029 31.9997 21.8986 31.9997 23.6667C31.9997 21.8986 32.7021 20.2029 33.9523 18.9526C35.2025 17.7024 36.8982 17 38.6663 17H46.9997C47.4417 17 47.8656 17.1756 48.1782 17.4882C48.4907 17.8007 48.6663 18.2246 48.6663 18.6667V40.3333C48.6663 40.7754 48.4907 41.1993 48.1782 41.5118C47.8656 41.8244 47.4417 42 46.9997 42H36.9997C35.6736 42 34.4018 42.5268 33.4641 43.4645C32.5265 44.4021 31.9997 45.6739 31.9997 47C31.9997 45.6739 31.4729 44.4021 30.5352 43.4645C29.5975 42.5268 28.3258 42 26.9997 42H16.9997Z" stroke="#333333" stroke-width="2" stroke-linecap="round" stroke-linejoin="round"/>
</svg>
