<svg width="234" height="197" viewBox="0 0 234 197" fill="none" xmlns="http://www.w3.org/2000/svg">
<g filter="url(#filter0_d_465_310)">
<path d="M2.40039 8C2.40039 3.58173 5.98211 0 10.4004 0H223.2C227.619 0 231.2 3.58172 231.2 8V185C231.2 189.418 227.619 193 223.2 193H10.4004C5.98211 193 2.40039 189.418 2.40039 185V8Z" fill="white"/>
<path d="M84.8008 79C84.8008 61.3269 99.1277 47 116.801 47C134.474 47 148.801 61.3269 148.801 79C148.801 96.6731 134.474 111 116.801 111C99.1277 111 84.8008 96.6731 84.8008 79Z" fill="#F5FFF7"/>
<path d="M123.467 94V90.6667C123.467 88.8986 122.765 87.2029 121.515 85.9526C120.264 84.7024 118.569 84 116.8 84H106.8C105.032 84 103.337 84.7024 102.086 85.9526C100.836 87.2029 100.134 88.8986 100.134 90.6667V94" stroke="#333333" stroke-width="2" stroke-linecap="round" stroke-linejoin="round"/>
<path d="M111.8 77.3333C115.482 77.3333 118.467 74.3486 118.467 70.6667C118.467 66.9848 115.482 64 111.8 64C108.119 64 105.134 66.9848 105.134 70.6667C105.134 74.3486 108.119 77.3333 111.8 77.3333Z" stroke="#333333" stroke-width="2" stroke-linecap="round" stroke-linejoin="round"/>
<path d="M133.468 93.9999V90.6666C133.467 89.1894 132.975 87.7545 132.07 86.5871C131.165 85.4196 129.898 84.5858 128.468 84.2166" stroke="#333333" stroke-width="2" stroke-linecap="round" stroke-linejoin="round"/>
<path d="M123.468 64.2166C124.902 64.5837 126.173 65.4177 127.081 66.5871C127.988 67.7564 128.481 69.1946 128.481 70.6749C128.481 72.1552 127.988 73.5934 127.081 74.7627C126.173 75.9321 124.902 76.7661 123.468 77.1332" stroke="#333333" stroke-width="2" stroke-linecap="round" stroke-linejoin="round"/>
<path d="M78.6266 129.07V127.278H81.0206C81.4499 127.278 81.7719 127.166 81.9866 126.942C82.2012 126.718 82.3086 126.401 82.3086 125.99C82.3086 125.579 82.2012 125.267 81.9866 125.052C81.7719 124.828 81.4499 124.716 81.0206 124.716H78.6266V123.33H80.9086C81.6179 123.33 82.2479 123.419 82.7986 123.596C83.3492 123.764 83.7832 124.039 84.1006 124.422C84.4179 124.805 84.5766 125.323 84.5766 125.976V126.172C84.5766 126.779 84.4366 127.301 84.1566 127.74C83.8766 128.169 83.4659 128.501 82.9246 128.734C82.3832 128.958 81.7112 129.07 80.9086 129.07H78.6266ZM76.6666 129.07V118.696H78.9066V129.07H76.6666ZM78.6266 124.352V122.98H80.6426C81.0812 122.98 81.3986 122.868 81.5946 122.644C81.7906 122.42 81.8886 122.121 81.8886 121.748C81.8886 121.356 81.7906 121.048 81.5946 120.824C81.3986 120.6 81.0812 120.488 80.6426 120.488H78.6266V118.696H80.5026C81.6786 118.696 82.5792 118.943 83.2046 119.438C83.8392 119.933 84.1566 120.637 84.1566 121.552V121.762C84.1566 122.397 83.9932 122.905 83.6666 123.288C83.3492 123.671 82.9152 123.946 82.3646 124.114C81.8232 124.273 81.2026 124.352 80.5026 124.352H78.6266ZM86.5979 129V121.328H88.8379V129H86.5979ZM85.5759 122.98V121.328H88.8379V122.98H85.5759ZM87.4659 120.572C87.0459 120.572 86.7332 120.465 86.5279 120.25C86.3319 120.026 86.2339 119.746 86.2339 119.41C86.2339 119.065 86.3319 118.785 86.5279 118.57C86.7332 118.346 87.0459 118.234 87.4659 118.234C87.8859 118.234 88.1939 118.346 88.3899 118.57C88.5952 118.785 88.6979 119.065 88.6979 119.41C88.6979 119.746 88.5952 120.026 88.3899 120.25C88.1939 120.465 87.8859 120.572 87.4659 120.572ZM95.6277 129.252C95.0024 129.252 94.4517 129.121 93.9757 128.86C93.4997 128.589 93.1264 128.202 92.8557 127.698C92.585 127.194 92.4404 126.578 92.4217 125.85H92.6877V129H90.9097V118.78H93.1497V123.974L92.6177 124.646C92.6457 123.871 92.7904 123.223 93.0517 122.7C93.3224 122.168 93.691 121.771 94.1577 121.51C94.6244 121.239 95.1564 121.104 95.7537 121.104C96.2764 121.104 96.7477 121.202 97.1677 121.398C97.597 121.585 97.961 121.855 98.2597 122.21C98.5584 122.555 98.787 122.966 98.9457 123.442C99.1137 123.918 99.1977 124.436 99.1977 124.996V125.304C99.1977 125.864 99.1137 126.382 98.9457 126.858C98.787 127.334 98.549 127.754 98.2317 128.118C97.9237 128.473 97.5504 128.753 97.1117 128.958C96.673 129.154 96.1784 129.252 95.6277 129.252ZM95.0397 127.376C95.4224 127.376 95.7537 127.283 96.0337 127.096C96.323 126.909 96.547 126.648 96.7057 126.312C96.8644 125.967 96.9437 125.579 96.9437 125.15C96.9437 124.711 96.8644 124.329 96.7057 124.002C96.547 123.675 96.323 123.423 96.0337 123.246C95.7537 123.059 95.4224 122.966 95.0397 122.966C94.7037 122.966 94.3864 123.045 94.0877 123.204C93.789 123.363 93.5464 123.591 93.3597 123.89C93.1824 124.179 93.0937 124.534 93.0937 124.954V125.472C93.0937 125.873 93.187 126.219 93.3737 126.508C93.5697 126.788 93.817 127.003 94.1157 127.152C94.4144 127.301 94.7224 127.376 95.0397 127.376ZM100.851 129V118.78H103.105V129H100.851ZM99.9414 120.432V118.78H103.105V120.432H99.9414ZM108.683 129.266C108.03 129.266 107.451 129.154 106.947 128.93C106.453 128.706 106.037 128.407 105.701 128.034C105.375 127.651 105.123 127.227 104.945 126.76C104.777 126.284 104.693 125.799 104.693 125.304V125.024C104.693 124.511 104.777 124.021 104.945 123.554C105.123 123.078 105.375 122.653 105.701 122.28C106.028 121.907 106.434 121.613 106.919 121.398C107.414 121.174 107.974 121.062 108.599 121.062C109.421 121.062 110.111 121.249 110.671 121.622C111.241 121.986 111.675 122.467 111.973 123.064C112.272 123.652 112.421 124.296 112.421 124.996V125.752H105.631V124.478H111.063L110.335 125.066C110.335 124.609 110.27 124.217 110.139 123.89C110.009 123.563 109.813 123.316 109.551 123.148C109.299 122.971 108.982 122.882 108.599 122.882C108.207 122.882 107.876 122.971 107.605 123.148C107.335 123.325 107.129 123.587 106.989 123.932C106.849 124.268 106.779 124.683 106.779 125.178C106.779 125.635 106.845 126.037 106.975 126.382C107.106 126.718 107.311 126.979 107.591 127.166C107.871 127.353 108.235 127.446 108.683 127.446C109.094 127.446 109.43 127.367 109.691 127.208C109.953 127.049 110.13 126.853 110.223 126.62H112.281C112.169 127.133 111.95 127.591 111.623 127.992C111.297 128.393 110.886 128.706 110.391 128.93C109.897 129.154 109.327 129.266 108.683 129.266ZM120.527 129.266C119.603 129.266 118.824 129.121 118.189 128.832C117.555 128.533 117.074 128.132 116.747 127.628C116.421 127.115 116.257 126.527 116.257 125.864H118.483C118.483 126.125 118.553 126.368 118.693 126.592C118.843 126.816 119.067 126.998 119.365 127.138C119.664 127.269 120.051 127.334 120.527 127.334C120.957 127.334 121.316 127.278 121.605 127.166C121.895 127.054 122.114 126.9 122.263 126.704C122.413 126.499 122.487 126.265 122.487 126.004C122.487 125.677 122.347 125.421 122.067 125.234C121.787 125.038 121.335 124.912 120.709 124.856L119.939 124.786C118.922 124.702 118.11 124.385 117.503 123.834C116.897 123.283 116.593 122.555 116.593 121.65C116.593 120.997 116.747 120.432 117.055 119.956C117.373 119.48 117.811 119.116 118.371 118.864C118.931 118.603 119.594 118.472 120.359 118.472C121.162 118.472 121.848 118.612 122.417 118.892C122.996 119.163 123.439 119.55 123.747 120.054C124.055 120.549 124.209 121.132 124.209 121.804H121.969C121.969 121.552 121.909 121.323 121.787 121.118C121.666 120.903 121.484 120.731 121.241 120.6C121.008 120.469 120.714 120.404 120.359 120.404C120.023 120.404 119.739 120.46 119.505 120.572C119.281 120.684 119.113 120.838 119.001 121.034C118.889 121.221 118.833 121.426 118.833 121.65C118.833 121.939 118.936 122.191 119.141 122.406C119.347 122.621 119.683 122.747 120.149 122.784L120.933 122.854C121.68 122.919 122.338 123.083 122.907 123.344C123.477 123.596 123.92 123.946 124.237 124.394C124.564 124.833 124.727 125.369 124.727 126.004C124.727 126.657 124.555 127.231 124.209 127.726C123.873 128.211 123.393 128.589 122.767 128.86C122.142 129.131 121.395 129.266 120.527 129.266ZM129.669 129.098C128.894 129.098 128.269 129.005 127.793 128.818C127.317 128.622 126.967 128.3 126.743 127.852C126.528 127.395 126.421 126.779 126.421 126.004V119.256H128.507V126.088C128.507 126.452 128.6 126.732 128.787 126.928C128.983 127.115 129.258 127.208 129.613 127.208H130.747V129.098H129.669ZM125.259 122.966V121.328H130.747V122.966H125.259ZM134.843 129.238C133.957 129.238 133.275 128.953 132.799 128.384C132.323 127.805 132.085 126.937 132.085 125.78V121.328H134.325V125.892C134.325 126.303 134.442 126.629 134.675 126.872C134.909 127.115 135.221 127.236 135.613 127.236C136.015 127.236 136.341 127.11 136.593 126.858C136.845 126.606 136.971 126.265 136.971 125.836V121.328H139.211V129H137.433V125.766H137.587C137.587 126.541 137.485 127.189 137.279 127.712C137.083 128.225 136.789 128.608 136.397 128.86C136.005 129.112 135.52 129.238 134.941 129.238H134.843ZM144.441 129.252C143.9 129.252 143.405 129.154 142.957 128.958C142.518 128.762 142.136 128.491 141.809 128.146C141.482 127.791 141.23 127.376 141.053 126.9C140.885 126.424 140.801 125.911 140.801 125.36V125.038C140.801 124.487 140.88 123.974 141.039 123.498C141.207 123.022 141.445 122.607 141.753 122.252C142.07 121.888 142.448 121.608 142.887 121.412C143.326 121.207 143.816 121.104 144.357 121.104C144.973 121.104 145.505 121.239 145.953 121.51C146.401 121.771 146.751 122.163 147.003 122.686C147.255 123.199 147.395 123.834 147.423 124.59L146.835 124.044V118.78H149.089V129H147.311V125.822H147.619C147.591 126.55 147.437 127.171 147.157 127.684C146.886 128.197 146.518 128.589 146.051 128.86C145.584 129.121 145.048 129.252 144.441 129.252ZM145.001 127.376C145.346 127.376 145.659 127.301 145.939 127.152C146.228 126.993 146.457 126.765 146.625 126.466C146.802 126.167 146.891 125.808 146.891 125.388V124.87C146.891 124.459 146.802 124.114 146.625 123.834C146.448 123.554 146.214 123.339 145.925 123.19C145.636 123.041 145.323 122.966 144.987 122.966C144.614 122.966 144.278 123.064 143.979 123.26C143.69 123.447 143.461 123.708 143.293 124.044C143.125 124.371 143.041 124.753 143.041 125.192C143.041 125.64 143.125 126.027 143.293 126.354C143.461 126.681 143.694 126.933 143.993 127.11C144.292 127.287 144.628 127.376 145.001 127.376ZM151.037 132.038V130.134H152.633C152.875 130.134 153.081 130.101 153.249 130.036C153.417 129.98 153.552 129.882 153.655 129.742C153.757 129.602 153.841 129.411 153.907 129.168L155.797 121.328H157.925L155.783 129.616C155.633 130.213 155.423 130.689 155.153 131.044C154.891 131.399 154.537 131.651 154.089 131.8C153.65 131.959 153.09 132.038 152.409 132.038H151.037ZM153.445 128.832V127.082H155.069V128.832H153.445ZM152.521 128.832L150.169 121.328H152.423L154.649 128.832H152.521ZM83.1109 153.07V151.278H85.5049C85.9343 151.278 86.2563 151.166 86.4709 150.942C86.6856 150.718 86.7929 150.401 86.7929 149.99C86.7929 149.579 86.6856 149.267 86.4709 149.052C86.2563 148.828 85.9343 148.716 85.5049 148.716H83.1109V147.33H85.3929C86.1023 147.33 86.7323 147.419 87.2829 147.596C87.8336 147.764 88.2676 148.039 88.5849 148.422C88.9023 148.805 89.0609 149.323 89.0609 149.976V150.172C89.0609 150.779 88.9209 151.301 88.6409 151.74C88.3609 152.169 87.9503 152.501 87.4089 152.734C86.8676 152.958 86.1956 153.07 85.3929 153.07H83.1109ZM81.1509 153.07V142.696H83.3909V153.07H81.1509ZM83.1109 148.352V146.98H85.1269C85.5656 146.98 85.8829 146.868 86.0789 146.644C86.2749 146.42 86.3729 146.121 86.3729 145.748C86.3729 145.356 86.2749 145.048 86.0789 144.824C85.8829 144.6 85.5656 144.488 85.1269 144.488H83.1109V142.696H84.9869C86.1629 142.696 87.0636 142.943 87.6889 143.438C88.3236 143.933 88.6409 144.637 88.6409 145.552V145.762C88.6409 146.397 88.4776 146.905 88.1509 147.288C87.8336 147.671 87.3996 147.946 86.8489 148.114C86.3076 148.273 85.6869 148.352 84.9869 148.352H83.1109ZM90.7183 153V145.328H92.4963V148.618H92.4543C92.4543 147.535 92.683 146.7 93.1403 146.112C93.607 145.524 94.279 145.23 95.1563 145.23H95.4503V147.162H94.8903C94.2743 147.162 93.7983 147.33 93.4623 147.666C93.1263 147.993 92.9583 148.469 92.9583 149.094V153H90.7183ZM100.084 153.266C99.4305 153.266 98.8519 153.154 98.3479 152.93C97.8532 152.706 97.4379 152.407 97.1019 152.034C96.7752 151.651 96.5232 151.227 96.3459 150.76C96.1779 150.284 96.0939 149.799 96.0939 149.304V149.024C96.0939 148.511 96.1779 148.021 96.3459 147.554C96.5232 147.078 96.7752 146.653 97.1019 146.28C97.4285 145.907 97.8345 145.613 98.3199 145.398C98.8145 145.174 99.3745 145.062 99.9999 145.062C100.821 145.062 101.512 145.249 102.072 145.622C102.641 145.986 103.075 146.467 103.374 147.064C103.673 147.652 103.822 148.296 103.822 148.996V149.752H97.0319V148.478H102.464L101.736 149.066C101.736 148.609 101.671 148.217 101.54 147.89C101.409 147.563 101.213 147.316 100.952 147.148C100.7 146.971 100.383 146.882 99.9999 146.882C99.6079 146.882 99.2765 146.971 99.0059 147.148C98.7352 147.325 98.5299 147.587 98.3899 147.932C98.2499 148.268 98.1799 148.683 98.1799 149.178C98.1799 149.635 98.2452 150.037 98.3759 150.382C98.5065 150.718 98.7119 150.979 98.9919 151.166C99.2719 151.353 99.6359 151.446 100.084 151.446C100.495 151.446 100.831 151.367 101.092 151.208C101.353 151.049 101.531 150.853 101.624 150.62H103.682C103.57 151.133 103.351 151.591 103.024 151.992C102.697 152.393 102.287 152.706 101.792 152.93C101.297 153.154 100.728 153.266 100.084 153.266ZM109.94 153V150.732H109.562V148.268C109.562 147.876 109.469 147.582 109.282 147.386C109.096 147.19 108.797 147.092 108.386 147.092C108.181 147.092 107.91 147.097 107.574 147.106C107.238 147.115 106.893 147.129 106.538 147.148C106.184 147.167 105.862 147.185 105.572 147.204V145.314C105.787 145.295 106.039 145.277 106.328 145.258C106.618 145.239 106.916 145.225 107.224 145.216C107.532 145.207 107.822 145.202 108.092 145.202C108.876 145.202 109.534 145.314 110.066 145.538C110.608 145.762 111.018 146.103 111.298 146.56C111.578 147.008 111.718 147.587 111.718 148.296V153H109.94ZM107.49 153.196C106.94 153.196 106.454 153.098 106.034 152.902C105.624 152.706 105.302 152.426 105.068 152.062C104.835 151.689 104.718 151.245 104.718 150.732C104.718 150.172 104.863 149.715 105.152 149.36C105.442 148.996 105.848 148.73 106.37 148.562C106.893 148.385 107.495 148.296 108.176 148.296H109.814V149.542H108.162C107.77 149.542 107.467 149.64 107.252 149.836C107.047 150.023 106.944 150.279 106.944 150.606C106.944 150.914 107.047 151.166 107.252 151.362C107.467 151.549 107.77 151.642 108.162 151.642C108.414 151.642 108.638 151.6 108.834 151.516C109.04 151.423 109.208 151.269 109.338 151.054C109.469 150.839 109.544 150.541 109.562 150.158L110.094 150.718C110.048 151.25 109.917 151.698 109.702 152.062C109.497 152.426 109.208 152.706 108.834 152.902C108.47 153.098 108.022 153.196 107.49 153.196ZM119.023 153L116.601 149.416H115.523L118.645 145.328H120.997L118.057 149.136L118.085 148.044L121.543 153H119.023ZM113.619 153V142.78H115.859V153H113.619ZM126.011 153.266C125.339 153.266 124.742 153.163 124.219 152.958C123.696 152.743 123.253 152.454 122.889 152.09C122.534 151.726 122.264 151.311 122.077 150.844C121.89 150.368 121.797 149.869 121.797 149.346V149.024C121.797 148.492 121.89 147.988 122.077 147.512C122.273 147.027 122.553 146.602 122.917 146.238C123.29 145.874 123.738 145.589 124.261 145.384C124.784 145.169 125.367 145.062 126.011 145.062C126.674 145.062 127.262 145.169 127.775 145.384C128.298 145.589 128.741 145.874 129.105 146.238C129.469 146.602 129.749 147.027 129.945 147.512C130.141 147.988 130.239 148.492 130.239 149.024V149.346C130.239 149.869 130.146 150.368 129.959 150.844C129.772 151.311 129.497 151.726 129.133 152.09C128.778 152.454 128.34 152.743 127.817 152.958C127.294 153.163 126.692 153.266 126.011 153.266ZM126.011 151.376C126.45 151.376 126.814 151.283 127.103 151.096C127.392 150.909 127.612 150.648 127.761 150.312C127.92 149.976 127.999 149.603 127.999 149.192C127.999 148.753 127.92 148.371 127.761 148.044C127.602 147.708 127.374 147.442 127.075 147.246C126.786 147.05 126.431 146.952 126.011 146.952C125.6 146.952 125.246 147.05 124.947 147.246C124.648 147.442 124.42 147.708 124.261 148.044C124.112 148.371 124.037 148.753 124.037 149.192C124.037 149.603 124.112 149.976 124.261 150.312C124.41 150.648 124.634 150.909 124.933 151.096C125.232 151.283 125.591 151.376 126.011 151.376ZM134.392 153.238C133.506 153.238 132.824 152.953 132.348 152.384C131.872 151.805 131.634 150.937 131.634 149.78V145.328H133.874V149.892C133.874 150.303 133.991 150.629 134.224 150.872C134.458 151.115 134.77 151.236 135.162 151.236C135.564 151.236 135.89 151.11 136.142 150.858C136.394 150.606 136.52 150.265 136.52 149.836V145.328H138.76V153H136.982V149.766H137.136C137.136 150.541 137.034 151.189 136.828 151.712C136.632 152.225 136.338 152.608 135.946 152.86C135.554 153.112 135.069 153.238 134.49 153.238H134.392ZM144.312 153.098C143.537 153.098 142.912 153.005 142.436 152.818C141.96 152.622 141.61 152.3 141.386 151.852C141.171 151.395 141.064 150.779 141.064 150.004V143.256H143.15V150.088C143.15 150.452 143.243 150.732 143.43 150.928C143.626 151.115 143.901 151.208 144.256 151.208H145.39V153.098H144.312ZM139.902 146.966V145.328H145.39V146.966H139.902ZM149.753 153.238C148.661 153.238 147.807 153.014 147.191 152.566C146.575 152.118 146.249 151.488 146.211 150.676H148.199C148.237 150.919 148.381 151.138 148.633 151.334C148.895 151.521 149.282 151.614 149.795 151.614C150.187 151.614 150.509 151.549 150.761 151.418C151.023 151.278 151.153 151.082 151.153 150.83C151.153 150.606 151.055 150.429 150.859 150.298C150.663 150.158 150.313 150.06 149.809 150.004L149.207 149.948C148.283 149.855 147.588 149.598 147.121 149.178C146.664 148.758 146.435 148.221 146.435 147.568C146.435 147.027 146.571 146.574 146.841 146.21C147.112 145.846 147.485 145.571 147.961 145.384C148.447 145.197 148.997 145.104 149.613 145.104C150.603 145.104 151.401 145.323 152.007 145.762C152.614 146.191 152.931 146.817 152.959 147.638H150.971C150.934 147.386 150.803 147.176 150.579 147.008C150.355 146.831 150.024 146.742 149.585 146.742C149.24 146.742 148.965 146.807 148.759 146.938C148.554 147.069 148.451 147.246 148.451 147.47C148.451 147.685 148.54 147.848 148.717 147.96C148.895 148.072 149.184 148.151 149.585 148.198L150.187 148.254C151.13 148.357 151.863 148.618 152.385 149.038C152.908 149.458 153.169 150.023 153.169 150.732C153.169 151.245 153.029 151.693 152.749 152.076C152.469 152.449 152.073 152.739 151.559 152.944C151.046 153.14 150.444 153.238 149.753 153.238Z" fill="#333333"/>
</g>
<defs>
<filter id="filter0_d_465_310" x="0.400391" y="0" width="232.8" height="197" filterUnits="userSpaceOnUse" color-interpolation-filters="sRGB">
<feFlood flood-opacity="0" result="BackgroundImageFix"/>
<feColorMatrix in="SourceAlpha" type="matrix" values="0 0 0 0 0 0 0 0 0 0 0 0 0 0 0 0 0 0 127 0" result="hardAlpha"/>
<feMorphology radius="2" operator="erode" in="SourceAlpha" result="effect1_dropShadow_465_310"/>
<feOffset dy="2"/>
<feGaussianBlur stdDeviation="2"/>
<feColorMatrix type="matrix" values="0 0 0 0 0 0 0 0 0 0 0 0 0 0 0 0 0 0 0.1 0"/>
<feBlend mode="normal" in2="BackgroundImageFix" result="effect1_dropShadow_465_310"/>
<feBlend mode="normal" in="SourceGraphic" in2="effect1_dropShadow_465_310" result="shape"/>
</filter>
</defs>
</svg>
