<svg width="233" height="197" viewBox="0 0 233 197" fill="none" xmlns="http://www.w3.org/2000/svg">
<g filter="url(#filter0_d_465_321)">
<path d="M2.2002 8C2.2002 3.58173 5.78192 0 10.2002 0H223C227.418 0 231 3.58172 231 8V185C231 189.418 227.418 193 223 193H10.2002C5.78192 193 2.2002 189.418 2.2002 185V8Z" fill="white"/>
<path d="M84.6006 79C84.6006 61.3269 98.9275 47 116.601 47C134.274 47 148.601 61.3269 148.601 79C148.601 96.6731 134.274 111 116.601 111C98.9275 111 84.6006 96.6731 84.6006 79Z" fill="#F5FFF7"/>
<path d="M114.934 71.6682L104.944 85.3182C104.709 85.6393 104.596 86.0339 104.627 86.4307C104.658 86.8275 104.829 87.2002 105.111 87.4815L106.472 88.8449C106.758 89.1302 107.137 89.3021 107.54 89.3288C107.943 89.3554 108.342 89.235 108.662 88.9899L121.751 78.9999" stroke="#333333" stroke-width="2" stroke-linecap="round" stroke-linejoin="round"/>
<path d="M124.101 94.2901C122.434 93.1667 120.554 92.3334 118.267 92.3334C114.837 92.3334 111.721 96.2601 108.267 95.6667C104.814 95.0734 103.642 90.0517 105.767 88.1667" stroke="#333333" stroke-width="2" stroke-linecap="round" stroke-linejoin="round"/>
<path d="M123.267 78.9999C127.869 78.9999 131.6 75.269 131.6 70.6666C131.6 66.0642 127.869 62.3333 123.267 62.3333C118.665 62.3333 114.934 66.0642 114.934 70.6666C114.934 75.269 118.665 78.9999 123.267 78.9999Z" stroke="#333333" stroke-width="2" stroke-linecap="round" stroke-linejoin="round"/>
<path d="M58.9387 141V132.502H61.2347V141H58.9387ZM56.0687 132.782V130.78H64.1187V132.782H56.0687ZM69.5515 141V138.732H69.1735V136.268C69.1735 135.876 69.0802 135.582 68.8935 135.386C68.7068 135.19 68.4082 135.092 67.9975 135.092C67.7922 135.092 67.5215 135.097 67.1855 135.106C66.8495 135.115 66.5042 135.129 66.1495 135.148C65.7948 135.167 65.4728 135.185 65.1835 135.204V133.314C65.3982 133.295 65.6502 133.277 65.9395 133.258C66.2288 133.239 66.5275 133.225 66.8355 133.216C67.1435 133.207 67.4328 133.202 67.7035 133.202C68.4875 133.202 69.1455 133.314 69.6775 133.538C70.2188 133.762 70.6295 134.103 70.9095 134.56C71.1895 135.008 71.3295 135.587 71.3295 136.296V141H69.5515ZM67.1015 141.196C66.5508 141.196 66.0655 141.098 65.6455 140.902C65.2348 140.706 64.9128 140.426 64.6795 140.062C64.4462 139.689 64.3295 139.245 64.3295 138.732C64.3295 138.172 64.4742 137.715 64.7635 137.36C65.0528 136.996 65.4588 136.73 65.9815 136.562C66.5042 136.385 67.1062 136.296 67.7875 136.296H69.4255V137.542H67.7735C67.3815 137.542 67.0782 137.64 66.8635 137.836C66.6582 138.023 66.5555 138.279 66.5555 138.606C66.5555 138.914 66.6582 139.166 66.8635 139.362C67.0782 139.549 67.3815 139.642 67.7735 139.642C68.0255 139.642 68.2495 139.6 68.4455 139.516C68.6508 139.423 68.8188 139.269 68.9495 139.054C69.0802 138.839 69.1548 138.541 69.1735 138.158L69.7055 138.718C69.6588 139.25 69.5282 139.698 69.3135 140.062C69.1082 140.426 68.8188 140.706 68.4455 140.902C68.0815 141.098 67.6335 141.196 67.1015 141.196ZM73.328 141V130.78H75.582V141H73.328ZM72.418 132.432V130.78H75.582V132.432H72.418ZM81.16 141.266C80.5067 141.266 79.928 141.154 79.424 140.93C78.9294 140.706 78.514 140.407 78.178 140.034C77.8514 139.651 77.5994 139.227 77.422 138.76C77.254 138.284 77.17 137.799 77.17 137.304V137.024C77.17 136.511 77.254 136.021 77.422 135.554C77.5994 135.078 77.8514 134.653 78.178 134.28C78.5047 133.907 78.9107 133.613 79.396 133.398C79.8907 133.174 80.4507 133.062 81.076 133.062C81.8974 133.062 82.588 133.249 83.148 133.622C83.7174 133.986 84.1514 134.467 84.45 135.064C84.7487 135.652 84.898 136.296 84.898 136.996V137.752H78.108V136.478H83.54L82.812 137.066C82.812 136.609 82.7467 136.217 82.616 135.89C82.4854 135.563 82.2894 135.316 82.028 135.148C81.776 134.971 81.4587 134.882 81.076 134.882C80.684 134.882 80.3527 134.971 80.082 135.148C79.8114 135.325 79.606 135.587 79.466 135.932C79.326 136.268 79.256 136.683 79.256 137.178C79.256 137.635 79.3214 138.037 79.452 138.382C79.5827 138.718 79.788 138.979 80.068 139.166C80.348 139.353 80.712 139.446 81.16 139.446C81.5707 139.446 81.9067 139.367 82.168 139.208C82.4294 139.049 82.6067 138.853 82.7 138.62H84.758C84.646 139.133 84.4267 139.591 84.1 139.992C83.7734 140.393 83.3627 140.706 82.868 140.93C82.3734 141.154 81.804 141.266 81.16 141.266ZM86.3824 141V133.328H88.1604V136.618H88.0344C88.0344 135.834 88.1324 135.181 88.3284 134.658C88.5337 134.135 88.8417 133.743 89.2524 133.482C89.663 133.221 90.1624 133.09 90.7504 133.09H90.8484C91.7444 133.09 92.4257 133.384 92.8924 133.972C93.3684 134.551 93.6064 135.433 93.6064 136.618V141H91.3664V136.492C91.3664 136.081 91.245 135.745 91.0024 135.484C90.7597 135.223 90.433 135.092 90.0224 135.092C89.6024 135.092 89.2617 135.227 89.0004 135.498C88.7484 135.759 88.6224 136.105 88.6224 136.534V141H86.3824ZM99.0012 141.098C98.2265 141.098 97.6012 141.005 97.1252 140.818C96.6492 140.622 96.2992 140.3 96.0752 139.852C95.8605 139.395 95.7532 138.779 95.7532 138.004V131.256H97.8392V138.088C97.8392 138.452 97.9325 138.732 98.1192 138.928C98.3152 139.115 98.5905 139.208 98.9452 139.208H100.079V141.098H99.0012ZM94.5912 134.966V133.328H100.079V134.966H94.5912ZM108.207 141.266C107.283 141.266 106.504 141.121 105.869 140.832C105.234 140.533 104.754 140.132 104.427 139.628C104.1 139.115 103.937 138.527 103.937 137.864H106.163C106.163 138.125 106.233 138.368 106.373 138.592C106.522 138.816 106.746 138.998 107.045 139.138C107.344 139.269 107.731 139.334 108.207 139.334C108.636 139.334 108.996 139.278 109.285 139.166C109.574 139.054 109.794 138.9 109.943 138.704C110.092 138.499 110.167 138.265 110.167 138.004C110.167 137.677 110.027 137.421 109.747 137.234C109.467 137.038 109.014 136.912 108.389 136.856L107.619 136.786C106.602 136.702 105.79 136.385 105.183 135.834C104.576 135.283 104.273 134.555 104.273 133.65C104.273 132.997 104.427 132.432 104.735 131.956C105.052 131.48 105.491 131.116 106.051 130.864C106.611 130.603 107.274 130.472 108.039 130.472C108.842 130.472 109.528 130.612 110.097 130.892C110.676 131.163 111.119 131.55 111.427 132.054C111.735 132.549 111.889 133.132 111.889 133.804H109.649C109.649 133.552 109.588 133.323 109.467 133.118C109.346 132.903 109.164 132.731 108.921 132.6C108.688 132.469 108.394 132.404 108.039 132.404C107.703 132.404 107.418 132.46 107.185 132.572C106.961 132.684 106.793 132.838 106.681 133.034C106.569 133.221 106.513 133.426 106.513 133.65C106.513 133.939 106.616 134.191 106.821 134.406C107.026 134.621 107.362 134.747 107.829 134.784L108.613 134.854C109.36 134.919 110.018 135.083 110.587 135.344C111.156 135.596 111.6 135.946 111.917 136.394C112.244 136.833 112.407 137.369 112.407 138.004C112.407 138.657 112.234 139.231 111.889 139.726C111.553 140.211 111.072 140.589 110.447 140.86C109.822 141.131 109.075 141.266 108.207 141.266ZM113.863 141V130.78H116.103V136.674H115.767C115.767 135.899 115.865 135.246 116.061 134.714C116.257 134.182 116.546 133.781 116.929 133.51C117.311 133.23 117.792 133.09 118.371 133.09H118.469C119.318 133.09 119.967 133.393 120.415 134C120.863 134.597 121.087 135.475 121.087 136.632V141H118.847V136.492C118.847 136.072 118.721 135.736 118.469 135.484C118.226 135.223 117.904 135.092 117.503 135.092C117.083 135.092 116.742 135.227 116.481 135.498C116.229 135.769 116.103 136.128 116.103 136.576V141H113.863ZM126.734 141.266C126.062 141.266 125.464 141.163 124.942 140.958C124.419 140.743 123.976 140.454 123.612 140.09C123.257 139.726 122.986 139.311 122.8 138.844C122.613 138.368 122.52 137.869 122.52 137.346V137.024C122.52 136.492 122.613 135.988 122.8 135.512C122.996 135.027 123.276 134.602 123.64 134.238C124.013 133.874 124.461 133.589 124.984 133.384C125.506 133.169 126.09 133.062 126.734 133.062C127.396 133.062 127.984 133.169 128.498 133.384C129.02 133.589 129.464 133.874 129.828 134.238C130.192 134.602 130.472 135.027 130.668 135.512C130.864 135.988 130.962 136.492 130.962 137.024V137.346C130.962 137.869 130.868 138.368 130.682 138.844C130.495 139.311 130.22 139.726 129.856 140.09C129.501 140.454 129.062 140.743 128.54 140.958C128.017 141.163 127.415 141.266 126.734 141.266ZM126.734 139.376C127.172 139.376 127.536 139.283 127.826 139.096C128.115 138.909 128.334 138.648 128.484 138.312C128.642 137.976 128.722 137.603 128.722 137.192C128.722 136.753 128.642 136.371 128.484 136.044C128.325 135.708 128.096 135.442 127.798 135.246C127.508 135.05 127.154 134.952 126.734 134.952C126.323 134.952 125.968 135.05 125.67 135.246C125.371 135.442 125.142 135.708 124.984 136.044C124.834 136.371 124.76 136.753 124.76 137.192C124.76 137.603 124.834 137.976 124.984 138.312C125.133 138.648 125.357 138.909 125.656 139.096C125.954 139.283 126.314 139.376 126.734 139.376ZM135.161 141L136.561 133.58H139.011L140.635 141H138.899L137.233 133.636H138.227L136.729 141H135.161ZM134.629 141L134.615 139.138H136.155L136.169 141H134.629ZM133.621 141L131.563 133.328H133.761L135.679 141H133.621ZM139.473 141L139.487 139.138H141.027V141H139.473ZM140.103 141L141.811 133.328H143.869L142.021 141H140.103ZM148.52 141.266C147.857 141.266 147.278 141.159 146.784 140.944C146.298 140.72 145.892 140.421 145.566 140.048C145.239 139.675 144.996 139.255 144.838 138.788C144.679 138.312 144.6 137.822 144.6 137.318V137.052C144.6 136.529 144.684 136.03 144.852 135.554C145.02 135.069 145.267 134.639 145.594 134.266C145.92 133.893 146.326 133.599 146.812 133.384C147.306 133.169 147.871 133.062 148.506 133.062C149.196 133.062 149.808 133.197 150.34 133.468C150.872 133.729 151.296 134.098 151.614 134.574C151.931 135.05 152.108 135.596 152.146 136.212H149.948C149.91 135.867 149.77 135.577 149.528 135.344C149.294 135.101 148.954 134.98 148.506 134.98C148.132 134.98 147.82 135.073 147.568 135.26C147.325 135.447 147.143 135.703 147.022 136.03C146.9 136.357 146.84 136.744 146.84 137.192C146.84 137.603 146.896 137.976 147.008 138.312C147.12 138.639 147.297 138.895 147.54 139.082C147.792 139.259 148.118 139.348 148.52 139.348C148.818 139.348 149.07 139.297 149.276 139.194C149.49 139.082 149.658 138.933 149.78 138.746C149.91 138.55 149.99 138.326 150.018 138.074H152.202C152.174 138.709 151.996 139.269 151.67 139.754C151.343 140.23 150.909 140.603 150.368 140.874C149.826 141.135 149.21 141.266 148.52 141.266ZM158.268 141V138.732H157.89V136.268C157.89 135.876 157.797 135.582 157.61 135.386C157.424 135.19 157.125 135.092 156.714 135.092C156.509 135.092 156.238 135.097 155.902 135.106C155.566 135.115 155.221 135.129 154.866 135.148C154.512 135.167 154.19 135.185 153.9 135.204V133.314C154.115 133.295 154.367 133.277 154.656 133.258C154.946 133.239 155.244 133.225 155.552 133.216C155.86 133.207 156.15 133.202 156.42 133.202C157.204 133.202 157.862 133.314 158.394 133.538C158.936 133.762 159.346 134.103 159.626 134.56C159.906 135.008 160.046 135.587 160.046 136.296V141H158.268ZM155.818 141.196C155.268 141.196 154.782 141.098 154.362 140.902C153.952 140.706 153.63 140.426 153.396 140.062C153.163 139.689 153.046 139.245 153.046 138.732C153.046 138.172 153.191 137.715 153.48 137.36C153.77 136.996 154.176 136.73 154.698 136.562C155.221 136.385 155.823 136.296 156.504 136.296H158.142V137.542H156.49C156.098 137.542 155.795 137.64 155.58 137.836C155.375 138.023 155.272 138.279 155.272 138.606C155.272 138.914 155.375 139.166 155.58 139.362C155.795 139.549 156.098 139.642 156.49 139.642C156.742 139.642 156.966 139.6 157.162 139.516C157.368 139.423 157.536 139.269 157.666 139.054C157.797 138.839 157.872 138.541 157.89 138.158L158.422 138.718C158.376 139.25 158.245 139.698 158.03 140.062C157.825 140.426 157.536 140.706 157.162 140.902C156.798 141.098 156.35 141.196 155.818 141.196ZM164.859 141.238C163.767 141.238 162.913 141.014 162.297 140.566C161.681 140.118 161.354 139.488 161.317 138.676H163.305C163.342 138.919 163.487 139.138 163.739 139.334C164 139.521 164.387 139.614 164.901 139.614C165.293 139.614 165.615 139.549 165.867 139.418C166.128 139.278 166.259 139.082 166.259 138.83C166.259 138.606 166.161 138.429 165.965 138.298C165.769 138.158 165.419 138.06 164.915 138.004L164.313 137.948C163.389 137.855 162.693 137.598 162.227 137.178C161.769 136.758 161.541 136.221 161.541 135.568C161.541 135.027 161.676 134.574 161.947 134.21C162.217 133.846 162.591 133.571 163.067 133.384C163.552 133.197 164.103 133.104 164.719 133.104C165.708 133.104 166.506 133.323 167.113 133.762C167.719 134.191 168.037 134.817 168.065 135.638H166.077C166.039 135.386 165.909 135.176 165.685 135.008C165.461 134.831 165.129 134.742 164.691 134.742C164.345 134.742 164.07 134.807 163.865 134.938C163.659 135.069 163.557 135.246 163.557 135.47C163.557 135.685 163.645 135.848 163.823 135.96C164 136.072 164.289 136.151 164.691 136.198L165.293 136.254C166.235 136.357 166.968 136.618 167.491 137.038C168.013 137.458 168.275 138.023 168.275 138.732C168.275 139.245 168.135 139.693 167.855 140.076C167.575 140.449 167.178 140.739 166.665 140.944C166.151 141.14 165.549 141.238 164.859 141.238ZM173.24 141.266C172.587 141.266 172.008 141.154 171.504 140.93C171.009 140.706 170.594 140.407 170.258 140.034C169.931 139.651 169.679 139.227 169.502 138.76C169.334 138.284 169.25 137.799 169.25 137.304V137.024C169.25 136.511 169.334 136.021 169.502 135.554C169.679 135.078 169.931 134.653 170.258 134.28C170.585 133.907 170.991 133.613 171.476 133.398C171.971 133.174 172.531 133.062 173.156 133.062C173.977 133.062 174.668 133.249 175.228 133.622C175.797 133.986 176.231 134.467 176.53 135.064C176.829 135.652 176.978 136.296 176.978 136.996V137.752H170.188V136.478H175.62L174.892 137.066C174.892 136.609 174.827 136.217 174.696 135.89C174.565 135.563 174.369 135.316 174.108 135.148C173.856 134.971 173.539 134.882 173.156 134.882C172.764 134.882 172.433 134.971 172.162 135.148C171.891 135.325 171.686 135.587 171.546 135.932C171.406 136.268 171.336 136.683 171.336 137.178C171.336 137.635 171.401 138.037 171.532 138.382C171.663 138.718 171.868 138.979 172.148 139.166C172.428 139.353 172.792 139.446 173.24 139.446C173.651 139.446 173.987 139.367 174.248 139.208C174.509 139.049 174.687 138.853 174.78 138.62H176.838C176.726 139.133 176.507 139.591 176.18 139.992C175.853 140.393 175.443 140.706 174.948 140.93C174.453 141.154 173.884 141.266 173.24 141.266Z" fill="#333333"/>
</g>
<defs>
<filter id="filter0_d_465_321" x="0.200195" y="0" width="232.8" height="197" filterUnits="userSpaceOnUse" color-interpolation-filters="sRGB">
<feFlood flood-opacity="0" result="BackgroundImageFix"/>
<feColorMatrix in="SourceAlpha" type="matrix" values="0 0 0 0 0 0 0 0 0 0 0 0 0 0 0 0 0 0 127 0" result="hardAlpha"/>
<feMorphology radius="2" operator="erode" in="SourceAlpha" result="effect1_dropShadow_465_321"/>
<feOffset dy="2"/>
<feGaussianBlur stdDeviation="2"/>
<feColorMatrix type="matrix" values="0 0 0 0 0 0 0 0 0 0 0 0 0 0 0 0 0 0 0.1 0"/>
<feBlend mode="normal" in2="BackgroundImageFix" result="effect1_dropShadow_465_321"/>
<feBlend mode="normal" in="SourceGraphic" in2="effect1_dropShadow_465_321" result="shape"/>
</filter>
</defs>
</svg>
