<svg width="234" height="197" viewBox="0 0 234 197" fill="none" xmlns="http://www.w3.org/2000/svg">
<g filter="url(#filter0_d_465_291)">
<path d="M2.7998 8C2.7998 3.58173 6.38153 0 10.7998 0H223.6C228.018 0 231.6 3.58172 231.6 8V185C231.6 189.418 228.018 193 223.6 193H10.7998C6.38153 193 2.7998 189.418 2.7998 185V8Z" fill="white"/>
<path d="M85.2002 75C85.2002 57.3269 99.5271 43 117.2 43C134.873 43 149.2 57.3269 149.2 75C149.2 92.6731 134.873 107 117.2 107C99.5271 107 85.2002 92.6731 85.2002 75Z" fill="#F5FFF7"/>
<path d="M112.2 85V63.3333L132.2 60V81.6667" stroke="#333333" stroke-width="2" stroke-linecap="round" stroke-linejoin="round"/>
<path d="M107.2 90C109.962 90 112.2 87.7614 112.2 85C112.2 82.2386 109.962 80 107.2 80C104.439 80 102.2 82.2386 102.2 85C102.2 87.7614 104.439 90 107.2 90Z" stroke="#333333" stroke-width="2" stroke-linecap="round" stroke-linejoin="round"/>
<path d="M127.2 86.6667C129.962 86.6667 132.2 84.4282 132.2 81.6667C132.2 78.9053 129.962 76.6667 127.2 76.6667C124.439 76.6667 122.2 78.9053 122.2 81.6667C122.2 84.4282 124.439 86.6667 127.2 86.6667Z" stroke="#333333" stroke-width="2" stroke-linecap="round" stroke-linejoin="round"/>
<path d="M89.273 141L86.753 130.78H89.119L91.093 139.46L90.603 139.138H91.877L91.331 139.46L92.857 131.158H94.761L92.759 141H89.273ZM95.363 141L93.207 131.158H95.209L96.973 139.46L96.441 139.138H97.659L97.197 139.46L98.919 130.78H101.159L98.919 141H95.363ZM105.848 141.266C105.176 141.266 104.579 141.163 104.056 140.958C103.533 140.743 103.09 140.454 102.726 140.09C102.371 139.726 102.101 139.311 101.914 138.844C101.727 138.368 101.634 137.869 101.634 137.346V137.024C101.634 136.492 101.727 135.988 101.914 135.512C102.11 135.027 102.39 134.602 102.754 134.238C103.127 133.874 103.575 133.589 104.098 133.384C104.621 133.169 105.204 133.062 105.848 133.062C106.511 133.062 107.099 133.169 107.612 133.384C108.135 133.589 108.578 133.874 108.942 134.238C109.306 134.602 109.586 135.027 109.782 135.512C109.978 135.988 110.076 136.492 110.076 137.024V137.346C110.076 137.869 109.983 138.368 109.796 138.844C109.609 139.311 109.334 139.726 108.97 140.09C108.615 140.454 108.177 140.743 107.654 140.958C107.131 141.163 106.529 141.266 105.848 141.266ZM105.848 139.376C106.287 139.376 106.651 139.283 106.94 139.096C107.229 138.909 107.449 138.648 107.598 138.312C107.757 137.976 107.836 137.603 107.836 137.192C107.836 136.753 107.757 136.371 107.598 136.044C107.439 135.708 107.211 135.442 106.912 135.246C106.623 135.05 106.268 134.952 105.848 134.952C105.437 134.952 105.083 135.05 104.784 135.246C104.485 135.442 104.257 135.708 104.098 136.044C103.949 136.371 103.874 136.753 103.874 137.192C103.874 137.603 103.949 137.976 104.098 138.312C104.247 138.648 104.471 138.909 104.77 139.096C105.069 139.283 105.428 139.376 105.848 139.376ZM111.639 141V133.328H113.417V136.618H113.375C113.375 135.535 113.604 134.7 114.061 134.112C114.528 133.524 115.2 133.23 116.077 133.23H116.371V135.162H115.811C115.195 135.162 114.719 135.33 114.383 135.666C114.047 135.993 113.879 136.469 113.879 137.094V141H111.639ZM120.444 141.238C119.352 141.238 118.498 141.014 117.882 140.566C117.266 140.118 116.939 139.488 116.902 138.676H118.89C118.927 138.919 119.072 139.138 119.324 139.334C119.585 139.521 119.972 139.614 120.486 139.614C120.878 139.614 121.2 139.549 121.452 139.418C121.713 139.278 121.844 139.082 121.844 138.83C121.844 138.606 121.746 138.429 121.55 138.298C121.354 138.158 121.004 138.06 120.5 138.004L119.898 137.948C118.974 137.855 118.278 137.598 117.812 137.178C117.354 136.758 117.126 136.221 117.126 135.568C117.126 135.027 117.261 134.574 117.532 134.21C117.802 133.846 118.176 133.571 118.652 133.384C119.137 133.197 119.688 133.104 120.304 133.104C121.293 133.104 122.091 133.323 122.698 133.762C123.304 134.191 123.622 134.817 123.65 135.638H121.662C121.624 135.386 121.494 135.176 121.27 135.008C121.046 134.831 120.714 134.742 120.276 134.742C119.93 134.742 119.655 134.807 119.45 134.938C119.244 135.069 119.142 135.246 119.142 135.47C119.142 135.685 119.23 135.848 119.408 135.96C119.585 136.072 119.874 136.151 120.276 136.198L120.878 136.254C121.82 136.357 122.553 136.618 123.076 137.038C123.598 137.458 123.86 138.023 123.86 138.732C123.86 139.245 123.72 139.693 123.44 140.076C123.16 140.449 122.763 140.739 122.25 140.944C121.736 141.14 121.134 141.238 120.444 141.238ZM125.311 141V130.78H127.551V136.674H127.215C127.215 135.899 127.313 135.246 127.509 134.714C127.705 134.182 127.994 133.781 128.377 133.51C128.76 133.23 129.24 133.09 129.819 133.09H129.917C130.766 133.09 131.415 133.393 131.863 134C132.311 134.597 132.535 135.475 132.535 136.632V141H130.295V136.492C130.295 136.072 130.169 135.736 129.917 135.484C129.674 135.223 129.352 135.092 128.951 135.092C128.531 135.092 128.19 135.227 127.929 135.498C127.677 135.769 127.551 136.128 127.551 136.576V141H125.311ZM134.808 141V133.328H137.048V141H134.808ZM133.786 134.98V133.328H137.048V134.98H133.786ZM135.676 132.572C135.256 132.572 134.943 132.465 134.738 132.25C134.542 132.026 134.444 131.746 134.444 131.41C134.444 131.065 134.542 130.785 134.738 130.57C134.943 130.346 135.256 130.234 135.676 130.234C136.096 130.234 136.404 130.346 136.6 130.57C136.805 130.785 136.908 131.065 136.908 131.41C136.908 131.746 136.805 132.026 136.6 132.25C136.404 132.465 136.096 132.572 135.676 132.572ZM139.12 143.8V133.328H140.898V136.646L140.66 136.632C140.697 135.867 140.856 135.223 141.136 134.7C141.416 134.168 141.794 133.771 142.27 133.51C142.746 133.239 143.282 133.104 143.88 133.104C144.412 133.104 144.892 133.202 145.322 133.398C145.76 133.594 146.134 133.869 146.442 134.224C146.759 134.569 146.997 134.98 147.156 135.456C147.324 135.923 147.408 136.436 147.408 136.996V137.318C147.408 137.869 147.328 138.387 147.17 138.872C147.011 139.348 146.778 139.763 146.47 140.118C146.171 140.473 145.802 140.753 145.364 140.958C144.934 141.154 144.44 141.252 143.88 141.252C143.301 141.252 142.778 141.135 142.312 140.902C141.854 140.659 141.486 140.295 141.206 139.81C140.926 139.315 140.772 138.69 140.744 137.934L141.36 138.774V143.8H139.12ZM143.25 139.376C143.632 139.376 143.964 139.283 144.244 139.096C144.533 138.909 144.757 138.648 144.916 138.312C145.074 137.976 145.154 137.589 145.154 137.15C145.154 136.711 145.074 136.329 144.916 136.002C144.757 135.675 144.538 135.423 144.258 135.246C143.978 135.059 143.642 134.966 143.25 134.966C142.914 134.966 142.596 135.045 142.298 135.204C141.999 135.363 141.756 135.591 141.57 135.89C141.392 136.179 141.304 136.534 141.304 136.954V137.472C141.304 137.873 141.397 138.219 141.584 138.508C141.78 138.788 142.027 139.003 142.326 139.152C142.624 139.301 142.932 139.376 143.25 139.376Z" fill="#333333"/>
</g>
<defs>
<filter id="filter0_d_465_291" x="0.799805" y="0" width="232.8" height="197" filterUnits="userSpaceOnUse" color-interpolation-filters="sRGB">
<feFlood flood-opacity="0" result="BackgroundImageFix"/>
<feColorMatrix in="SourceAlpha" type="matrix" values="0 0 0 0 0 0 0 0 0 0 0 0 0 0 0 0 0 0 127 0" result="hardAlpha"/>
<feMorphology radius="2" operator="erode" in="SourceAlpha" result="effect1_dropShadow_465_291"/>
<feOffset dy="2"/>
<feGaussianBlur stdDeviation="2"/>
<feColorMatrix type="matrix" values="0 0 0 0 0 0 0 0 0 0 0 0 0 0 0 0 0 0 0.1 0"/>
<feBlend mode="normal" in2="BackgroundImageFix" result="effect1_dropShadow_465_291"/>
<feBlend mode="normal" in="SourceGraphic" in2="effect1_dropShadow_465_291" result="shape"/>
</filter>
</defs>
</svg>
