<svg width="233" height="197" viewBox="0 0 233 197" fill="none" xmlns="http://www.w3.org/2000/svg">
<g filter="url(#filter0_d_465_283)">
<path d="M2 8C2 3.58173 5.58172 0 10 0H222.8C227.218 0 230.8 3.58172 230.8 8V185C230.8 189.418 227.218 193 222.8 193H10C5.58172 193 2 189.418 2 185V8Z" fill="white"/>
<path d="M84.4004 75C84.4004 57.3269 98.7273 43 116.4 43C134.074 43 148.4 57.3269 148.4 75C148.4 92.6731 134.074 107 116.4 107C98.7273 107 84.4004 92.6731 84.4004 75Z" fill="#F5FFF7"/>
<path d="M127.734 78.3333C130.217 75.9 132.734 72.9833 132.734 69.1667C132.734 66.7355 131.768 64.4039 130.049 62.6849C128.33 60.9658 125.998 60 123.567 60C120.634 60 118.567 60.8333 116.067 63.3333C113.567 60.8333 111.5 60 108.567 60C106.136 60 103.804 60.9658 102.085 62.6849C100.366 64.4039 99.4004 66.7355 99.4004 69.1667C99.4004 73 101.9 75.9167 104.4 78.3333L116.067 90L127.734 78.3333Z" stroke="#333333" stroke-width="2" stroke-linecap="round" stroke-linejoin="round"/>
<path d="M84.9934 144.052C84.3587 144.052 83.808 143.977 83.3414 143.828C82.884 143.679 82.5247 143.408 82.2634 143.016C82.0114 142.624 81.8854 142.064 81.8854 141.336V139.768H84.0274V141.434C84.0274 141.705 84.102 141.91 84.2514 142.05C84.41 142.199 84.6247 142.274 84.8954 142.274H86.4214V144.052H84.9934ZM82.9914 141.266C82.0674 141.266 81.26 141.107 80.5694 140.79C79.888 140.463 79.3234 140.039 78.8754 139.516C78.4274 138.984 78.0914 138.41 77.8674 137.794C77.6527 137.178 77.5454 136.585 77.5454 136.016V135.708C77.5454 135.073 77.6574 134.448 77.8814 133.832C78.1147 133.207 78.46 132.642 78.9174 132.138C79.3747 131.634 79.944 131.233 80.6254 130.934C81.3067 130.626 82.0954 130.472 82.9914 130.472C83.8874 130.472 84.676 130.626 85.3574 130.934C86.0387 131.233 86.608 131.634 87.0654 132.138C87.5227 132.642 87.868 133.207 88.1014 133.832C88.3347 134.448 88.4514 135.073 88.4514 135.708V136.016C88.4514 136.585 88.3394 137.178 88.1154 137.794C87.8914 138.41 87.5554 138.984 87.1074 139.516C86.6594 140.039 86.09 140.463 85.3994 140.79C84.718 141.107 83.9154 141.266 82.9914 141.266ZM82.9914 139.124C83.4767 139.124 83.9107 139.04 84.2934 138.872C84.6854 138.704 85.0167 138.471 85.2874 138.172C85.5674 137.873 85.7774 137.528 85.9174 137.136C86.0574 136.744 86.1274 136.324 86.1274 135.876C86.1274 135.4 86.0527 134.966 85.9034 134.574C85.7634 134.173 85.5534 133.827 85.2734 133.538C85.0027 133.239 84.676 133.011 84.2934 132.852C83.9107 132.693 83.4767 132.614 82.9914 132.614C82.506 132.614 82.072 132.693 81.6894 132.852C81.3067 133.011 80.9754 133.239 80.6954 133.538C80.4247 133.827 80.2194 134.173 80.0794 134.574C79.9394 134.966 79.8694 135.4 79.8694 135.876C79.8694 136.324 79.9394 136.744 80.0794 137.136C80.2194 137.528 80.4247 137.873 80.6954 138.172C80.9754 138.471 81.3067 138.704 81.6894 138.872C82.072 139.04 82.506 139.124 82.9914 139.124ZM92.655 141.238C91.7683 141.238 91.087 140.953 90.611 140.384C90.135 139.805 89.897 138.937 89.897 137.78V133.328H92.137V137.892C92.137 138.303 92.2536 138.629 92.487 138.872C92.7203 139.115 93.033 139.236 93.425 139.236C93.8263 139.236 94.153 139.11 94.405 138.858C94.657 138.606 94.783 138.265 94.783 137.836V133.328H97.023V141H95.245V137.766H95.399C95.399 138.541 95.2963 139.189 95.091 139.712C94.895 140.225 94.601 140.608 94.209 140.86C93.817 141.112 93.3316 141.238 92.753 141.238H92.655ZM99.4524 141V133.328H101.692V141H99.4524ZM98.4304 134.98V133.328H101.692V134.98H98.4304ZM100.32 132.572C99.9004 132.572 99.5877 132.465 99.3824 132.25C99.1864 132.026 99.0884 131.746 99.0884 131.41C99.0884 131.065 99.1864 130.785 99.3824 130.57C99.5877 130.346 99.9004 130.234 100.32 130.234C100.74 130.234 101.048 130.346 101.244 130.57C101.45 130.785 101.552 131.065 101.552 131.41C101.552 131.746 101.45 132.026 101.244 132.25C101.048 132.465 100.74 132.572 100.32 132.572ZM107.278 141.266C106.625 141.266 106.046 141.154 105.542 140.93C105.048 140.706 104.632 140.407 104.296 140.034C103.97 139.651 103.718 139.227 103.54 138.76C103.372 138.284 103.288 137.799 103.288 137.304V137.024C103.288 136.511 103.372 136.021 103.54 135.554C103.718 135.078 103.97 134.653 104.296 134.28C104.623 133.907 105.029 133.613 105.514 133.398C106.009 133.174 106.569 133.062 107.194 133.062C108.016 133.062 108.706 133.249 109.266 133.622C109.836 133.986 110.27 134.467 110.568 135.064C110.867 135.652 111.016 136.296 111.016 136.996V137.752H104.226V136.478H109.658L108.93 137.066C108.93 136.609 108.865 136.217 108.734 135.89C108.604 135.563 108.408 135.316 108.146 135.148C107.894 134.971 107.577 134.882 107.194 134.882C106.802 134.882 106.471 134.971 106.2 135.148C105.93 135.325 105.724 135.587 105.584 135.932C105.444 136.268 105.374 136.683 105.374 137.178C105.374 137.635 105.44 138.037 105.57 138.382C105.701 138.718 105.906 138.979 106.186 139.166C106.466 139.353 106.83 139.446 107.278 139.446C107.689 139.446 108.025 139.367 108.286 139.208C108.548 139.049 108.725 138.853 108.818 138.62H110.876C110.764 139.133 110.545 139.591 110.218 139.992C109.892 140.393 109.481 140.706 108.986 140.93C108.492 141.154 107.922 141.266 107.278 141.266ZM115.987 141.098C115.212 141.098 114.587 141.005 114.111 140.818C113.635 140.622 113.285 140.3 113.061 139.852C112.846 139.395 112.739 138.779 112.739 138.004V131.256H114.825V138.088C114.825 138.452 114.918 138.732 115.105 138.928C115.301 139.115 115.576 139.208 115.931 139.208H117.065V141.098H115.987ZM111.577 134.966V133.328H117.065V134.966H111.577ZM123.666 141V132.502H125.962V141H123.666ZM120.796 132.782V130.78H128.846V132.782H120.796ZM130.064 141V133.328H132.304V141H130.064ZM129.042 134.98V133.328H132.304V134.98H129.042ZM130.932 132.572C130.512 132.572 130.199 132.465 129.994 132.25C129.798 132.026 129.7 131.746 129.7 131.41C129.7 131.065 129.798 130.785 129.994 130.57C130.199 130.346 130.512 130.234 130.932 130.234C131.352 130.234 131.66 130.346 131.856 130.57C132.061 130.785 132.164 131.065 132.164 131.41C132.164 131.746 132.061 132.026 131.856 132.25C131.66 132.465 131.352 132.572 130.932 132.572ZM134.376 141V133.328H136.154V136.632H136.028C136.028 135.848 136.126 135.195 136.322 134.672C136.518 134.149 136.812 133.757 137.204 133.496C137.596 133.225 138.076 133.09 138.646 133.09H138.744C139.322 133.09 139.803 133.225 140.186 133.496C140.578 133.757 140.872 134.149 141.068 134.672C141.273 135.195 141.376 135.848 141.376 136.632H140.83C140.83 135.848 140.928 135.195 141.124 134.672C141.329 134.149 141.628 133.757 142.02 133.496C142.412 133.225 142.892 133.09 143.462 133.09H143.56C144.138 133.09 144.624 133.225 145.016 133.496C145.417 133.757 145.72 134.149 145.926 134.672C146.131 135.195 146.234 135.848 146.234 136.632V141H143.994V136.506C143.994 136.086 143.882 135.745 143.658 135.484C143.443 135.223 143.135 135.092 142.734 135.092C142.332 135.092 142.015 135.227 141.782 135.498C141.548 135.759 141.432 136.109 141.432 136.548V141H139.178V136.506C139.178 136.086 139.066 135.745 138.842 135.484C138.627 135.223 138.324 135.092 137.932 135.092C137.521 135.092 137.199 135.227 136.966 135.498C136.732 135.759 136.616 136.109 136.616 136.548V141H134.376ZM151.657 141.266C151.004 141.266 150.425 141.154 149.921 140.93C149.426 140.706 149.011 140.407 148.675 140.034C148.348 139.651 148.096 139.227 147.919 138.76C147.751 138.284 147.667 137.799 147.667 137.304V137.024C147.667 136.511 147.751 136.021 147.919 135.554C148.096 135.078 148.348 134.653 148.675 134.28C149.002 133.907 149.408 133.613 149.893 133.398C150.388 133.174 150.948 133.062 151.573 133.062C152.394 133.062 153.085 133.249 153.645 133.622C154.214 133.986 154.648 134.467 154.947 135.064C155.246 135.652 155.395 136.296 155.395 136.996V137.752H148.605V136.478H154.037L153.309 137.066C153.309 136.609 153.244 136.217 153.113 135.89C152.982 135.563 152.786 135.316 152.525 135.148C152.273 134.971 151.956 134.882 151.573 134.882C151.181 134.882 150.85 134.971 150.579 135.148C150.308 135.325 150.103 135.587 149.963 135.932C149.823 136.268 149.753 136.683 149.753 137.178C149.753 137.635 149.818 138.037 149.949 138.382C150.08 138.718 150.285 138.979 150.565 139.166C150.845 139.353 151.209 139.446 151.657 139.446C152.068 139.446 152.404 139.367 152.665 139.208C152.926 139.049 153.104 138.853 153.197 138.62H155.255C155.143 139.133 154.924 139.591 154.597 139.992C154.27 140.393 153.86 140.706 153.365 140.93C152.87 141.154 152.301 141.266 151.657 141.266Z" fill="#333333"/>
</g>
<defs>
<filter id="filter0_d_465_283" x="0" y="0" width="232.8" height="197" filterUnits="userSpaceOnUse" color-interpolation-filters="sRGB">
<feFlood flood-opacity="0" result="BackgroundImageFix"/>
<feColorMatrix in="SourceAlpha" type="matrix" values="0 0 0 0 0 0 0 0 0 0 0 0 0 0 0 0 0 0 127 0" result="hardAlpha"/>
<feMorphology radius="2" operator="erode" in="SourceAlpha" result="effect1_dropShadow_465_283"/>
<feOffset dy="2"/>
<feGaussianBlur stdDeviation="2"/>
<feColorMatrix type="matrix" values="0 0 0 0 0 0 0 0 0 0 0 0 0 0 0 0 0 0 0.1 0"/>
<feBlend mode="normal" in2="BackgroundImageFix" result="effect1_dropShadow_465_283"/>
<feBlend mode="normal" in="SourceGraphic" in2="effect1_dropShadow_465_283" result="shape"/>
</filter>
</defs>
</svg>
