<svg width="234" height="197" viewBox="0 0 234 197" fill="none" xmlns="http://www.w3.org/2000/svg">
<g filter="url(#filter0_d_465_301)">
<path d="M2.59961 8C2.59961 3.58173 6.18133 0 10.5996 0H223.4C227.818 0 231.4 3.58172 231.4 8V185C231.4 189.418 227.818 193 223.4 193H10.5996C6.18133 193 2.59961 189.418 2.59961 185V8Z" fill="white"/>
<path d="M85 56C85 38.3269 99.3269 24 117 24C134.673 24 149 38.3269 149 56C149 73.6731 134.673 88 117 88C99.3269 88 85 73.6731 85 56Z" fill="#F5FFF7"/>
<path d="M117 47.6667V71.0001" stroke="#333333" stroke-width="2" stroke-linecap="round" stroke-linejoin="round"/>
<path d="M102 66C101.558 66 101.134 65.8244 100.821 65.5118C100.509 65.1993 100.333 64.7754 100.333 64.3333V42.6667C100.333 42.2246 100.509 41.8007 100.821 41.4882C101.134 41.1756 101.558 41 102 41H110.333C112.101 41 113.797 41.7024 115.047 42.9526C116.297 44.2029 117 45.8986 117 47.6667C117 45.8986 117.702 44.2029 118.952 42.9526C120.203 41.7024 121.898 41 123.666 41H132C132.442 41 132.866 41.1756 133.178 41.4882C133.491 41.8007 133.666 42.2246 133.666 42.6667V64.3333C133.666 64.7754 133.491 65.1993 133.178 65.5118C132.866 65.8244 132.442 66 132 66H122C120.674 66 119.402 66.5268 118.464 67.4645C117.526 68.4021 117 69.6739 117 71C117 69.6739 116.473 68.4021 115.535 67.4645C114.598 66.5268 113.326 66 112 66H102Z" stroke="#333333" stroke-width="2" stroke-linecap="round" stroke-linejoin="round"/>
<path d="M44.6822 117V106.78H47.8462L50.1842 112.52H50.4502L52.7602 106.78H55.9802V117H53.7122V108.278L54.0342 108.306L51.3322 114.928H49.1482L46.4322 108.306L46.7822 108.278V117H44.6822ZM58.51 117V109.328H60.75V117H58.51ZM57.488 110.98V109.328H60.75V110.98H57.488ZM59.378 108.572C58.958 108.572 58.6454 108.465 58.44 108.25C58.244 108.026 58.146 107.746 58.146 107.41C58.146 107.065 58.244 106.785 58.44 106.57C58.6454 106.346 58.958 106.234 59.378 106.234C59.798 106.234 60.106 106.346 60.302 106.57C60.5074 106.785 60.61 107.065 60.61 107.41C60.61 107.746 60.5074 108.026 60.302 108.25C60.106 108.465 59.798 108.572 59.378 108.572ZM62.8218 117V109.328H64.5998V112.618H64.4738C64.4738 111.834 64.5718 111.181 64.7678 110.658C64.9731 110.135 65.2811 109.743 65.6918 109.482C66.1025 109.221 66.6018 109.09 67.1898 109.09H67.2878C68.1838 109.09 68.8651 109.384 69.3318 109.972C69.8078 110.551 70.0458 111.433 70.0458 112.618V117H67.8058V112.492C67.8058 112.081 67.6845 111.745 67.4418 111.484C67.1991 111.223 66.8725 111.092 66.4618 111.092C66.0418 111.092 65.7011 111.227 65.4398 111.498C65.1878 111.759 65.0618 112.105 65.0618 112.534V117H62.8218ZM75.1186 117.252C74.5773 117.252 74.0826 117.154 73.6346 116.958C73.196 116.762 72.8133 116.491 72.4866 116.146C72.16 115.791 71.908 115.376 71.7306 114.9C71.5626 114.424 71.4786 113.911 71.4786 113.36V113.038C71.4786 112.487 71.558 111.974 71.7166 111.498C71.8846 111.022 72.1226 110.607 72.4306 110.252C72.748 109.888 73.126 109.608 73.5646 109.412C74.0033 109.207 74.4933 109.104 75.0346 109.104C75.6506 109.104 76.1826 109.239 76.6306 109.51C77.0786 109.771 77.4286 110.163 77.6806 110.686C77.9326 111.199 78.0726 111.834 78.1006 112.59L77.5126 112.044V106.78H79.7666V117H77.9886V113.822H78.2966C78.2686 114.55 78.1146 115.171 77.8346 115.684C77.564 116.197 77.1953 116.589 76.7286 116.86C76.262 117.121 75.7253 117.252 75.1186 117.252ZM75.6786 115.376C76.024 115.376 76.3366 115.301 76.6166 115.152C76.906 114.993 77.1346 114.765 77.3026 114.466C77.48 114.167 77.5686 113.808 77.5686 113.388V112.87C77.5686 112.459 77.48 112.114 77.3026 111.834C77.1253 111.554 76.892 111.339 76.6026 111.19C76.3133 111.041 76.0006 110.966 75.6646 110.966C75.2913 110.966 74.9553 111.064 74.6566 111.26C74.3673 111.447 74.1386 111.708 73.9706 112.044C73.8026 112.371 73.7186 112.753 73.7186 113.192C73.7186 113.64 73.8026 114.027 73.9706 114.354C74.1386 114.681 74.372 114.933 74.6706 115.11C74.9693 115.287 75.3053 115.376 75.6786 115.376ZM81.3924 114.032V112.044H87.2864V114.032H81.3924ZM91.0074 117.07V115.278H93.4014C93.8307 115.278 94.1527 115.166 94.3674 114.942C94.5821 114.718 94.6894 114.401 94.6894 113.99C94.6894 113.579 94.5821 113.267 94.3674 113.052C94.1527 112.828 93.8307 112.716 93.4014 112.716H91.0074V111.33H93.2894C93.9987 111.33 94.6287 111.419 95.1794 111.596C95.7301 111.764 96.1641 112.039 96.4814 112.422C96.7987 112.805 96.9574 113.323 96.9574 113.976V114.172C96.9574 114.779 96.8174 115.301 96.5374 115.74C96.2574 116.169 95.8467 116.501 95.3054 116.734C94.7641 116.958 94.0921 117.07 93.2894 117.07H91.0074ZM89.0474 117.07V106.696H91.2874V117.07H89.0474ZM91.0074 112.352V110.98H93.0234C93.4621 110.98 93.7794 110.868 93.9754 110.644C94.1714 110.42 94.2694 110.121 94.2694 109.748C94.2694 109.356 94.1714 109.048 93.9754 108.824C93.7794 108.6 93.4621 108.488 93.0234 108.488H91.0074V106.696H92.8834C94.0594 106.696 94.9601 106.943 95.5854 107.438C96.2201 107.933 96.5374 108.637 96.5374 109.552V109.762C96.5374 110.397 96.3741 110.905 96.0474 111.288C95.7301 111.671 95.2961 111.946 94.7454 112.114C94.2041 112.273 93.5834 112.352 92.8834 112.352H91.0074ZM98.7128 117V106.78H100.967V117H98.7128ZM97.8028 108.432V106.78H100.967V108.432H97.8028ZM106.769 117.266C106.097 117.266 105.499 117.163 104.977 116.958C104.454 116.743 104.011 116.454 103.647 116.09C103.292 115.726 103.021 115.311 102.835 114.844C102.648 114.368 102.555 113.869 102.555 113.346V113.024C102.555 112.492 102.648 111.988 102.835 111.512C103.031 111.027 103.311 110.602 103.675 110.238C104.048 109.874 104.496 109.589 105.019 109.384C105.541 109.169 106.125 109.062 106.769 109.062C107.431 109.062 108.019 109.169 108.533 109.384C109.055 109.589 109.499 109.874 109.863 110.238C110.227 110.602 110.507 111.027 110.703 111.512C110.899 111.988 110.997 112.492 110.997 113.024V113.346C110.997 113.869 110.903 114.368 110.717 114.844C110.53 115.311 110.255 115.726 109.891 116.09C109.536 116.454 109.097 116.743 108.575 116.958C108.052 117.163 107.45 117.266 106.769 117.266ZM106.769 115.376C107.207 115.376 107.571 115.283 107.861 115.096C108.15 114.909 108.369 114.648 108.519 114.312C108.677 113.976 108.757 113.603 108.757 113.192C108.757 112.753 108.677 112.371 108.519 112.044C108.36 111.708 108.131 111.442 107.833 111.246C107.543 111.05 107.189 110.952 106.769 110.952C106.358 110.952 106.003 111.05 105.705 111.246C105.406 111.442 105.177 111.708 105.019 112.044C104.869 112.371 104.795 112.753 104.795 113.192C104.795 113.603 104.869 113.976 105.019 114.312C105.168 114.648 105.392 114.909 105.691 115.096C105.989 115.283 106.349 115.376 106.769 115.376ZM115.196 117L116.596 109.58H119.046L120.67 117H118.934L117.268 109.636H118.262L116.764 117H115.196ZM114.664 117L114.65 115.138H116.19L116.204 117H114.664ZM113.656 117L111.598 109.328H113.796L115.714 117H113.656ZM119.508 117L119.522 115.138H121.062V117H119.508ZM120.138 117L121.846 109.328H123.904L122.056 117H120.138ZM125.653 117V109.328H127.893V117H125.653ZM124.631 110.98V109.328H127.893V110.98H124.631ZM126.521 108.572C126.101 108.572 125.788 108.465 125.583 108.25C125.387 108.026 125.289 107.746 125.289 107.41C125.289 107.065 125.387 106.785 125.583 106.57C125.788 106.346 126.101 106.234 126.521 106.234C126.941 106.234 127.249 106.346 127.445 106.57C127.65 106.785 127.753 107.065 127.753 107.41C127.753 107.746 127.65 108.026 127.445 108.25C127.249 108.465 126.941 108.572 126.521 108.572ZM129.964 117V109.328H131.742V112.618H131.616C131.616 111.834 131.714 111.181 131.91 110.658C132.116 110.135 132.424 109.743 132.834 109.482C133.245 109.221 133.744 109.09 134.332 109.09H134.43C135.326 109.09 136.008 109.384 136.474 109.972C136.95 110.551 137.188 111.433 137.188 112.618V117H134.948V112.492C134.948 112.081 134.827 111.745 134.584 111.484C134.342 111.223 134.015 111.092 133.604 111.092C133.184 111.092 132.844 111.227 132.582 111.498C132.33 111.759 132.204 112.105 132.204 112.534V117H129.964ZM142.121 120.052C141.748 120.052 141.365 120.038 140.973 120.01C140.581 119.982 140.222 119.945 139.895 119.898V118.008C140.222 118.055 140.581 118.092 140.973 118.12C141.375 118.157 141.739 118.176 142.065 118.176C142.672 118.176 143.162 118.106 143.535 117.966C143.918 117.826 144.198 117.611 144.375 117.322C144.553 117.042 144.641 116.678 144.641 116.23V114.704L145.047 113.808C145.029 114.489 144.893 115.073 144.641 115.558C144.399 116.043 144.058 116.417 143.619 116.678C143.181 116.93 142.658 117.056 142.051 117.056C141.529 117.056 141.053 116.963 140.623 116.776C140.203 116.58 139.844 116.309 139.545 115.964C139.247 115.619 139.018 115.217 138.859 114.76C138.701 114.293 138.621 113.789 138.621 113.248V112.926C138.621 112.385 138.705 111.881 138.873 111.414C139.041 110.947 139.284 110.541 139.601 110.196C139.919 109.851 140.297 109.585 140.735 109.398C141.174 109.202 141.659 109.104 142.191 109.104C142.807 109.104 143.339 109.239 143.787 109.51C144.245 109.781 144.604 110.177 144.865 110.7C145.127 111.223 145.267 111.853 145.285 112.59L144.977 112.674V109.328H146.755V116.09C146.755 117.033 146.587 117.793 146.251 118.372C145.915 118.951 145.402 119.375 144.711 119.646C144.03 119.917 143.167 120.052 142.121 120.052ZM142.751 115.166C143.097 115.166 143.409 115.091 143.689 114.942C143.969 114.783 144.189 114.559 144.347 114.27C144.515 113.981 144.599 113.631 144.599 113.22V112.814C144.599 112.413 144.511 112.077 144.333 111.806C144.165 111.526 143.941 111.316 143.661 111.176C143.381 111.027 143.083 110.952 142.765 110.952C142.392 110.952 142.061 111.041 141.771 111.218C141.482 111.395 141.258 111.643 141.099 111.96C140.941 112.277 140.861 112.651 140.861 113.08C140.861 113.519 140.941 113.897 141.099 114.214C141.267 114.522 141.491 114.76 141.771 114.928C142.061 115.087 142.387 115.166 142.751 115.166ZM153.426 117L150.906 106.78H153.272L155.246 115.46L154.756 115.138H156.03L155.484 115.46L157.01 107.158H158.914L156.912 117H153.426ZM159.516 117L157.36 107.158H159.362L161.126 115.46L160.594 115.138H161.812L161.35 115.46L163.072 106.78H165.312L163.072 117H159.516ZM170.001 117.266C169.329 117.266 168.732 117.163 168.209 116.958C167.687 116.743 167.243 116.454 166.879 116.09C166.525 115.726 166.254 115.311 166.067 114.844C165.881 114.368 165.787 113.869 165.787 113.346V113.024C165.787 112.492 165.881 111.988 166.067 111.512C166.263 111.027 166.543 110.602 166.907 110.238C167.281 109.874 167.729 109.589 168.251 109.384C168.774 109.169 169.357 109.062 170.001 109.062C170.664 109.062 171.252 109.169 171.765 109.384C172.288 109.589 172.731 109.874 173.095 110.238C173.459 110.602 173.739 111.027 173.935 111.512C174.131 111.988 174.229 112.492 174.229 113.024V113.346C174.229 113.869 174.136 114.368 173.949 114.844C173.763 115.311 173.487 115.726 173.123 116.09C172.769 116.454 172.33 116.743 171.807 116.958C171.285 117.163 170.683 117.266 170.001 117.266ZM170.001 115.376C170.44 115.376 170.804 115.283 171.093 115.096C171.383 114.909 171.602 114.648 171.751 114.312C171.91 113.976 171.989 113.603 171.989 113.192C171.989 112.753 171.91 112.371 171.751 112.044C171.593 111.708 171.364 111.442 171.065 111.246C170.776 111.05 170.421 110.952 170.001 110.952C169.591 110.952 169.236 111.05 168.937 111.246C168.639 111.442 168.41 111.708 168.251 112.044C168.102 112.371 168.027 112.753 168.027 113.192C168.027 113.603 168.102 113.976 168.251 114.312C168.401 114.648 168.625 114.909 168.923 115.096C169.222 115.283 169.581 115.376 170.001 115.376ZM175.793 117V109.328H177.571V112.618H177.529C177.529 111.535 177.757 110.7 178.215 110.112C178.681 109.524 179.353 109.23 180.231 109.23H180.525V111.162H179.965C179.349 111.162 178.873 111.33 178.537 111.666C178.201 111.993 178.033 112.469 178.033 113.094V117H175.793ZM184.808 117.252C184.267 117.252 183.772 117.154 183.324 116.958C182.885 116.762 182.503 116.491 182.176 116.146C181.849 115.791 181.597 115.376 181.42 114.9C181.252 114.424 181.168 113.911 181.168 113.36V113.038C181.168 112.487 181.247 111.974 181.406 111.498C181.574 111.022 181.812 110.607 182.12 110.252C182.437 109.888 182.815 109.608 183.254 109.412C183.693 109.207 184.183 109.104 184.724 109.104C185.34 109.104 185.872 109.239 186.32 109.51C186.768 109.771 187.118 110.163 187.37 110.686C187.622 111.199 187.762 111.834 187.79 112.59L187.202 112.044V106.78H189.456V117H187.678V113.822H187.986C187.958 114.55 187.804 115.171 187.524 115.684C187.253 116.197 186.885 116.589 186.418 116.86C185.951 117.121 185.415 117.252 184.808 117.252ZM185.368 115.376C185.713 115.376 186.026 115.301 186.306 115.152C186.595 114.993 186.824 114.765 186.992 114.466C187.169 114.167 187.258 113.808 187.258 113.388V112.87C187.258 112.459 187.169 112.114 186.992 111.834C186.815 111.554 186.581 111.339 186.292 111.19C186.003 111.041 185.69 110.966 185.354 110.966C184.981 110.966 184.645 111.064 184.346 111.26C184.057 111.447 183.828 111.708 183.66 112.044C183.492 112.371 183.408 112.753 183.408 113.192C183.408 113.64 183.492 114.027 183.66 114.354C183.828 114.681 184.061 114.933 184.36 115.11C184.659 115.287 184.995 115.376 185.368 115.376ZM56.9677 141.266C56.0437 141.266 55.2643 141.121 54.6297 140.832C53.995 140.533 53.5143 140.132 53.1877 139.628C52.861 139.115 52.6977 138.527 52.6977 137.864H54.9237C54.9237 138.125 54.9937 138.368 55.1337 138.592C55.283 138.816 55.507 138.998 55.8057 139.138C56.1043 139.269 56.4917 139.334 56.9677 139.334C57.397 139.334 57.7563 139.278 58.0457 139.166C58.335 139.054 58.5543 138.9 58.7037 138.704C58.853 138.499 58.9277 138.265 58.9277 138.004C58.9277 137.677 58.7877 137.421 58.5077 137.234C58.2277 137.038 57.775 136.912 57.1497 136.856L56.3797 136.786C55.3623 136.702 54.5503 136.385 53.9437 135.834C53.337 135.283 53.0337 134.555 53.0337 133.65C53.0337 132.997 53.1877 132.432 53.4957 131.956C53.813 131.48 54.2517 131.116 54.8117 130.864C55.3717 130.603 56.0343 130.472 56.7997 130.472C57.6023 130.472 58.2883 130.612 58.8577 130.892C59.4363 131.163 59.8797 131.55 60.1877 132.054C60.4957 132.549 60.6497 133.132 60.6497 133.804H58.4097C58.4097 133.552 58.349 133.323 58.2277 133.118C58.1063 132.903 57.9243 132.731 57.6817 132.6C57.4483 132.469 57.1543 132.404 56.7997 132.404C56.4637 132.404 56.179 132.46 55.9457 132.572C55.7217 132.684 55.5537 132.838 55.4417 133.034C55.3297 133.221 55.2737 133.426 55.2737 133.65C55.2737 133.939 55.3763 134.191 55.5817 134.406C55.787 134.621 56.123 134.747 56.5897 134.784L57.3737 134.854C58.1203 134.919 58.7783 135.083 59.3477 135.344C59.917 135.596 60.3603 135.946 60.6777 136.394C61.0043 136.833 61.1677 137.369 61.1677 138.004C61.1677 138.657 60.995 139.231 60.6497 139.726C60.3137 140.211 59.833 140.589 59.2077 140.86C58.5823 141.131 57.8357 141.266 56.9677 141.266ZM66.1376 141.266C65.4842 141.266 64.9056 141.154 64.4016 140.93C63.9069 140.706 63.4916 140.407 63.1556 140.034C62.8289 139.651 62.5769 139.227 62.3996 138.76C62.2316 138.284 62.1476 137.799 62.1476 137.304V137.024C62.1476 136.511 62.2316 136.021 62.3996 135.554C62.5769 135.078 62.8289 134.653 63.1556 134.28C63.4822 133.907 63.8882 133.613 64.3736 133.398C64.8682 133.174 65.4282 133.062 66.0536 133.062C66.8749 133.062 67.5656 133.249 68.1256 133.622C68.6949 133.986 69.1289 134.467 69.4276 135.064C69.7262 135.652 69.8756 136.296 69.8756 136.996V137.752H63.0856V136.478H68.5176L67.7896 137.066C67.7896 136.609 67.7242 136.217 67.5936 135.89C67.4629 135.563 67.2669 135.316 67.0056 135.148C66.7536 134.971 66.4362 134.882 66.0536 134.882C65.6616 134.882 65.3302 134.971 65.0596 135.148C64.7889 135.325 64.5836 135.587 64.4436 135.932C64.3036 136.268 64.2336 136.683 64.2336 137.178C64.2336 137.635 64.2989 138.037 64.4296 138.382C64.5602 138.718 64.7656 138.979 65.0456 139.166C65.3256 139.353 65.6896 139.446 66.1376 139.446C66.5482 139.446 66.8842 139.367 67.1456 139.208C67.4069 139.049 67.5842 138.853 67.6776 138.62H69.7356C69.6236 139.133 69.4042 139.591 69.0776 139.992C68.7509 140.393 68.3402 140.706 67.8456 140.93C67.3509 141.154 66.7816 141.266 66.1376 141.266ZM74.2719 141.238C73.1799 141.238 72.3259 141.014 71.7099 140.566C71.0939 140.118 70.7672 139.488 70.7299 138.676H72.7179C72.7552 138.919 72.8999 139.138 73.1519 139.334C73.4132 139.521 73.8006 139.614 74.3139 139.614C74.7059 139.614 75.0279 139.549 75.2799 139.418C75.5412 139.278 75.6719 139.082 75.6719 138.83C75.6719 138.606 75.5739 138.429 75.3779 138.298C75.1819 138.158 74.8319 138.06 74.3279 138.004L73.7259 137.948C72.8019 137.855 72.1066 137.598 71.6399 137.178C71.1826 136.758 70.9539 136.221 70.9539 135.568C70.9539 135.027 71.0892 134.574 71.3599 134.21C71.6306 133.846 72.0039 133.571 72.4799 133.384C72.9652 133.197 73.5159 133.104 74.1319 133.104C75.1212 133.104 75.9192 133.323 76.5259 133.762C77.1326 134.191 77.4499 134.817 77.4779 135.638H75.4899C75.4526 135.386 75.3219 135.176 75.0979 135.008C74.8739 134.831 74.5426 134.742 74.1039 134.742C73.7586 134.742 73.4832 134.807 73.2779 134.938C73.0726 135.069 72.9699 135.246 72.9699 135.47C72.9699 135.685 73.0586 135.848 73.2359 135.96C73.4132 136.072 73.7026 136.151 74.1039 136.198L74.7059 136.254C75.6486 136.357 76.3812 136.618 76.9039 137.038C77.4266 137.458 77.6879 138.023 77.6879 138.732C77.6879 139.245 77.5479 139.693 77.2679 140.076C76.9879 140.449 76.5912 140.739 76.0779 140.944C75.5646 141.14 74.9626 141.238 74.2719 141.238ZM82.0512 141.238C80.9592 141.238 80.1052 141.014 79.4892 140.566C78.8732 140.118 78.5465 139.488 78.5092 138.676H80.4972C80.5345 138.919 80.6792 139.138 80.9312 139.334C81.1925 139.521 81.5799 139.614 82.0932 139.614C82.4852 139.614 82.8072 139.549 83.0592 139.418C83.3205 139.278 83.4512 139.082 83.4512 138.83C83.4512 138.606 83.3532 138.429 83.1572 138.298C82.9612 138.158 82.6112 138.06 82.1072 138.004L81.5052 137.948C80.5812 137.855 79.8859 137.598 79.4192 137.178C78.9619 136.758 78.7332 136.221 78.7332 135.568C78.7332 135.027 78.8685 134.574 79.1392 134.21C79.4099 133.846 79.7832 133.571 80.2592 133.384C80.7445 133.197 81.2952 133.104 81.9112 133.104C82.9005 133.104 83.6985 133.323 84.3052 133.762C84.9119 134.191 85.2292 134.817 85.2572 135.638H83.2692C83.2319 135.386 83.1012 135.176 82.8772 135.008C82.6532 134.831 82.3219 134.742 81.8832 134.742C81.5379 134.742 81.2625 134.807 81.0572 134.938C80.8519 135.069 80.7492 135.246 80.7492 135.47C80.7492 135.685 80.8379 135.848 81.0152 135.96C81.1925 136.072 81.4819 136.151 81.8832 136.198L82.4852 136.254C83.4279 136.357 84.1605 136.618 84.6832 137.038C85.2059 137.458 85.4672 138.023 85.4672 138.732C85.4672 139.245 85.3272 139.693 85.0472 140.076C84.7672 140.449 84.3705 140.739 83.8572 140.944C83.3439 141.14 82.7419 141.238 82.0512 141.238ZM87.2825 141V133.328H89.5225V141H87.2825ZM86.2605 134.98V133.328H89.5225V134.98H86.2605ZM88.1505 132.572C87.7305 132.572 87.4178 132.465 87.2125 132.25C87.0165 132.026 86.9185 131.746 86.9185 131.41C86.9185 131.065 87.0165 130.785 87.2125 130.57C87.4178 130.346 87.7305 130.234 88.1505 130.234C88.5705 130.234 88.8785 130.346 89.0745 130.57C89.2798 130.785 89.3825 131.065 89.3825 131.41C89.3825 131.746 89.2798 132.026 89.0745 132.25C88.8785 132.465 88.5705 132.572 88.1505 132.572ZM95.3323 141.266C94.6603 141.266 94.0629 141.163 93.5403 140.958C93.0176 140.743 92.5743 140.454 92.2103 140.09C91.8556 139.726 91.5849 139.311 91.3983 138.844C91.2116 138.368 91.1183 137.869 91.1183 137.346V137.024C91.1183 136.492 91.2116 135.988 91.3983 135.512C91.5943 135.027 91.8743 134.602 92.2383 134.238C92.6116 133.874 93.0596 133.589 93.5823 133.384C94.1049 133.169 94.6883 133.062 95.3323 133.062C95.9949 133.062 96.5829 133.169 97.0963 133.384C97.6189 133.589 98.0623 133.874 98.4263 134.238C98.7903 134.602 99.0703 135.027 99.2663 135.512C99.4623 135.988 99.5603 136.492 99.5603 137.024V137.346C99.5603 137.869 99.4669 138.368 99.2803 138.844C99.0936 139.311 98.8183 139.726 98.4543 140.09C98.0996 140.454 97.6609 140.743 97.1383 140.958C96.6156 141.163 96.0136 141.266 95.3323 141.266ZM95.3323 139.376C95.7709 139.376 96.1349 139.283 96.4243 139.096C96.7136 138.909 96.9329 138.648 97.0823 138.312C97.2409 137.976 97.3203 137.603 97.3203 137.192C97.3203 136.753 97.2409 136.371 97.0823 136.044C96.9236 135.708 96.6949 135.442 96.3963 135.246C96.1069 135.05 95.7523 134.952 95.3323 134.952C94.9216 134.952 94.5669 135.05 94.2683 135.246C93.9696 135.442 93.7409 135.708 93.5823 136.044C93.4329 136.371 93.3583 136.753 93.3583 137.192C93.3583 137.603 93.4329 137.976 93.5823 138.312C93.7316 138.648 93.9556 138.909 94.2543 139.096C94.5529 139.283 94.9123 139.376 95.3323 139.376ZM101.124 141V133.328H102.902V136.618H102.776C102.776 135.834 102.874 135.181 103.07 134.658C103.275 134.135 103.583 133.743 103.994 133.482C104.404 133.221 104.904 133.09 105.492 133.09H105.59C106.486 133.09 107.167 133.384 107.634 133.972C108.11 134.551 108.348 135.433 108.348 136.618V141H106.108V136.492C106.108 136.081 105.986 135.745 105.744 135.484C105.501 135.223 105.174 135.092 104.764 135.092C104.344 135.092 104.003 135.227 103.742 135.498C103.49 135.759 103.364 136.105 103.364 136.534V141H101.124ZM113.168 141.238C112.076 141.238 111.222 141.014 110.606 140.566C109.99 140.118 109.664 139.488 109.626 138.676H111.614C111.652 138.919 111.796 139.138 112.048 139.334C112.31 139.521 112.697 139.614 113.21 139.614C113.602 139.614 113.924 139.549 114.176 139.418C114.438 139.278 114.568 139.082 114.568 138.83C114.568 138.606 114.47 138.429 114.274 138.298C114.078 138.158 113.728 138.06 113.224 138.004L112.622 137.948C111.698 137.855 111.003 137.598 110.536 137.178C110.079 136.758 109.85 136.221 109.85 135.568C109.85 135.027 109.986 134.574 110.256 134.21C110.527 133.846 110.9 133.571 111.376 133.384C111.862 133.197 112.412 133.104 113.028 133.104C114.018 133.104 114.816 133.323 115.422 133.762C116.029 134.191 116.346 134.817 116.374 135.638H114.386C114.349 135.386 114.218 135.176 113.994 135.008C113.77 134.831 113.439 134.742 113 134.742C112.655 134.742 112.38 134.807 112.174 134.938C111.969 135.069 111.866 135.246 111.866 135.47C111.866 135.685 111.955 135.848 112.132 135.96C112.31 136.072 112.599 136.151 113 136.198L113.602 136.254C114.545 136.357 115.278 136.618 115.8 137.038C116.323 137.458 116.584 138.023 116.584 138.732C116.584 139.245 116.444 139.693 116.164 140.076C115.884 140.449 115.488 140.739 114.974 140.944C114.461 141.14 113.859 141.238 113.168 141.238ZM125.609 141V138.732H125.231V136.268C125.231 135.876 125.138 135.582 124.951 135.386C124.764 135.19 124.466 135.092 124.055 135.092C123.85 135.092 123.579 135.097 123.243 135.106C122.907 135.115 122.562 135.129 122.207 135.148C121.852 135.167 121.53 135.185 121.241 135.204V133.314C121.456 133.295 121.708 133.277 121.997 133.258C122.286 133.239 122.585 133.225 122.893 133.216C123.201 133.207 123.49 133.202 123.761 133.202C124.545 133.202 125.203 133.314 125.735 133.538C126.276 133.762 126.687 134.103 126.967 134.56C127.247 135.008 127.387 135.587 127.387 136.296V141H125.609ZM123.159 141.196C122.608 141.196 122.123 141.098 121.703 140.902C121.292 140.706 120.97 140.426 120.737 140.062C120.504 139.689 120.387 139.245 120.387 138.732C120.387 138.172 120.532 137.715 120.821 137.36C121.11 136.996 121.516 136.73 122.039 136.562C122.562 136.385 123.164 136.296 123.845 136.296H125.483V137.542H123.831C123.439 137.542 123.136 137.64 122.921 137.836C122.716 138.023 122.613 138.279 122.613 138.606C122.613 138.914 122.716 139.166 122.921 139.362C123.136 139.549 123.439 139.642 123.831 139.642C124.083 139.642 124.307 139.6 124.503 139.516C124.708 139.423 124.876 139.269 125.007 139.054C125.138 138.839 125.212 138.541 125.231 138.158L125.763 138.718C125.716 139.25 125.586 139.698 125.371 140.062C125.166 140.426 124.876 140.706 124.503 140.902C124.139 141.098 123.691 141.196 123.159 141.196ZM129.288 141V133.328H131.066V136.618H130.94C130.94 135.834 131.038 135.181 131.234 134.658C131.439 134.135 131.747 133.743 132.158 133.482C132.568 133.221 133.068 133.09 133.656 133.09H133.754C134.65 133.09 135.331 133.384 135.798 133.972C136.274 134.551 136.512 135.433 136.512 136.618V141H134.272V136.492C134.272 136.081 134.15 135.745 133.908 135.484C133.665 135.223 133.338 135.092 132.928 135.092C132.508 135.092 132.167 135.227 131.906 135.498C131.654 135.759 131.528 136.105 131.528 136.534V141H129.288ZM141.584 141.252C141.043 141.252 140.548 141.154 140.1 140.958C139.662 140.762 139.279 140.491 138.952 140.146C138.626 139.791 138.374 139.376 138.196 138.9C138.028 138.424 137.944 137.911 137.944 137.36V137.038C137.944 136.487 138.024 135.974 138.182 135.498C138.35 135.022 138.588 134.607 138.896 134.252C139.214 133.888 139.592 133.608 140.03 133.412C140.469 133.207 140.959 133.104 141.5 133.104C142.116 133.104 142.648 133.239 143.096 133.51C143.544 133.771 143.894 134.163 144.146 134.686C144.398 135.199 144.538 135.834 144.566 136.59L143.978 136.044V130.78H146.232V141H144.454V137.822H144.762C144.734 138.55 144.58 139.171 144.3 139.684C144.03 140.197 143.661 140.589 143.194 140.86C142.728 141.121 142.191 141.252 141.584 141.252ZM142.144 139.376C142.49 139.376 142.802 139.301 143.082 139.152C143.372 138.993 143.6 138.765 143.768 138.466C143.946 138.167 144.034 137.808 144.034 137.388V136.87C144.034 136.459 143.946 136.114 143.768 135.834C143.591 135.554 143.358 135.339 143.068 135.19C142.779 135.041 142.466 134.966 142.13 134.966C141.757 134.966 141.421 135.064 141.122 135.26C140.833 135.447 140.604 135.708 140.436 136.044C140.268 136.371 140.184 136.753 140.184 137.192C140.184 137.64 140.268 138.027 140.436 138.354C140.604 138.681 140.838 138.933 141.136 139.11C141.435 139.287 141.771 139.376 142.144 139.376ZM151.33 141V130.696H153.626V141H151.33ZM157.532 141L154.536 136.604H157.056L160.192 141H157.532ZM153.01 137.724V135.918H155.53C155.866 135.918 156.155 135.853 156.398 135.722C156.65 135.582 156.841 135.391 156.972 135.148C157.112 134.896 157.182 134.607 157.182 134.28C157.182 133.953 157.112 133.669 156.972 133.426C156.841 133.174 156.65 132.983 156.398 132.852C156.155 132.712 155.866 132.642 155.53 132.642H153.01V130.696H155.348C156.197 130.696 156.934 130.827 157.56 131.088C158.185 131.34 158.666 131.718 159.002 132.222C159.338 132.726 159.506 133.361 159.506 134.126V134.35C159.506 135.106 159.333 135.736 158.988 136.24C158.652 136.735 158.171 137.108 157.546 137.36C156.93 137.603 156.197 137.724 155.348 137.724H153.01ZM164.807 141.266C164.154 141.266 163.575 141.154 163.071 140.93C162.577 140.706 162.161 140.407 161.825 140.034C161.499 139.651 161.247 139.227 161.069 138.76C160.901 138.284 160.817 137.799 160.817 137.304V137.024C160.817 136.511 160.901 136.021 161.069 135.554C161.247 135.078 161.499 134.653 161.825 134.28C162.152 133.907 162.558 133.613 163.043 133.398C163.538 133.174 164.098 133.062 164.723 133.062C165.545 133.062 166.235 133.249 166.795 133.622C167.365 133.986 167.799 134.467 168.097 135.064C168.396 135.652 168.545 136.296 168.545 136.996V137.752H161.755V136.478H167.187L166.459 137.066C166.459 136.609 166.394 136.217 166.263 135.89C166.133 135.563 165.937 135.316 165.675 135.148C165.423 134.971 165.106 134.882 164.723 134.882C164.331 134.882 164 134.971 163.729 135.148C163.459 135.325 163.253 135.587 163.113 135.932C162.973 136.268 162.903 136.683 162.903 137.178C162.903 137.635 162.969 138.037 163.099 138.382C163.23 138.718 163.435 138.979 163.715 139.166C163.995 139.353 164.359 139.446 164.807 139.446C165.218 139.446 165.554 139.367 165.815 139.208C166.077 139.049 166.254 138.853 166.347 138.62H168.405C168.293 139.133 168.074 139.591 167.747 139.992C167.421 140.393 167.01 140.706 166.515 140.93C166.021 141.154 165.451 141.266 164.807 141.266ZM174.664 141V138.732H174.286V136.268C174.286 135.876 174.192 135.582 174.006 135.386C173.819 135.19 173.52 135.092 173.11 135.092C172.904 135.092 172.634 135.097 172.298 135.106C171.962 135.115 171.616 135.129 171.262 135.148C170.907 135.167 170.585 135.185 170.296 135.204V133.314C170.51 133.295 170.762 133.277 171.052 133.258C171.341 133.239 171.64 133.225 171.948 133.216C172.256 133.207 172.545 133.202 172.816 133.202C173.6 133.202 174.258 133.314 174.79 133.538C175.331 133.762 175.742 134.103 176.022 134.56C176.302 135.008 176.442 135.587 176.442 136.296V141H174.664ZM172.214 141.196C171.663 141.196 171.178 141.098 170.758 140.902C170.347 140.706 170.025 140.426 169.792 140.062C169.558 139.689 169.442 139.245 169.442 138.732C169.442 138.172 169.586 137.715 169.876 137.36C170.165 136.996 170.571 136.73 171.094 136.562C171.616 136.385 172.218 136.296 172.9 136.296H174.538V137.542H172.886C172.494 137.542 172.19 137.64 171.976 137.836C171.77 138.023 171.668 138.279 171.668 138.606C171.668 138.914 171.77 139.166 171.976 139.362C172.19 139.549 172.494 139.642 172.886 139.642C173.138 139.642 173.362 139.6 173.558 139.516C173.763 139.423 173.931 139.269 174.062 139.054C174.192 138.839 174.267 138.541 174.286 138.158L174.818 138.718C174.771 139.25 174.64 139.698 174.426 140.062C174.22 140.426 173.931 140.706 173.558 140.902C173.194 141.098 172.746 141.196 172.214 141.196ZM178.44 141V130.78H180.694V141H178.44ZM177.53 132.432V130.78H180.694V132.432H177.53ZM80.0032 165V156.502H82.2992V165H80.0032ZM77.1332 156.782V154.78H85.1832V156.782H77.1332ZM90.616 165V162.732H90.238V160.268C90.238 159.876 90.1446 159.582 89.958 159.386C89.7713 159.19 89.4726 159.092 89.062 159.092C88.8566 159.092 88.586 159.097 88.25 159.106C87.914 159.115 87.5686 159.129 87.214 159.148C86.8593 159.167 86.5373 159.185 86.248 159.204V157.314C86.4626 157.295 86.7146 157.277 87.004 157.258C87.2933 157.239 87.592 157.225 87.9 157.216C88.208 157.207 88.4973 157.202 88.768 157.202C89.552 157.202 90.21 157.314 90.742 157.538C91.2833 157.762 91.694 158.103 91.974 158.56C92.254 159.008 92.394 159.587 92.394 160.296V165H90.616ZM88.166 165.196C87.6153 165.196 87.13 165.098 86.71 164.902C86.2993 164.706 85.9773 164.426 85.744 164.062C85.5106 163.689 85.394 163.245 85.394 162.732C85.394 162.172 85.5386 161.715 85.828 161.36C86.1173 160.996 86.5233 160.73 87.046 160.562C87.5686 160.385 88.1706 160.296 88.852 160.296H90.49V161.542H88.838C88.446 161.542 88.1426 161.64 87.928 161.836C87.7226 162.023 87.62 162.279 87.62 162.606C87.62 162.914 87.7226 163.166 87.928 163.362C88.1426 163.549 88.446 163.642 88.838 163.642C89.09 163.642 89.314 163.6 89.51 163.516C89.7153 163.423 89.8833 163.269 90.014 163.054C90.1446 162.839 90.2193 162.541 90.238 162.158L90.77 162.718C90.7233 163.25 90.5926 163.698 90.378 164.062C90.1726 164.426 89.8833 164.706 89.51 164.902C89.146 165.098 88.698 165.196 88.166 165.196ZM94.3925 165V154.78H96.6465V165H94.3925ZM93.4825 156.432V154.78H96.6465V156.432H93.4825ZM104.114 165L101.692 161.416H100.614L103.736 157.328H106.088L103.148 161.136L103.176 160.044L106.634 165H104.114ZM98.7105 165V154.78H100.95V165H98.7105ZM112.733 162.074V160.086H114.567C114.922 160.086 115.225 160.016 115.477 159.876C115.739 159.736 115.939 159.54 116.079 159.288C116.219 159.027 116.289 158.728 116.289 158.392C116.289 158.037 116.219 157.734 116.079 157.482C115.939 157.221 115.739 157.025 115.477 156.894C115.225 156.754 114.922 156.684 114.567 156.684H112.733V154.696H114.455C115.323 154.696 116.065 154.841 116.681 155.13C117.307 155.419 117.783 155.83 118.109 156.362C118.445 156.894 118.613 157.533 118.613 158.28V158.504C118.613 159.232 118.445 159.867 118.109 160.408C117.783 160.94 117.307 161.351 116.681 161.64C116.065 161.929 115.323 162.074 114.455 162.074H112.733ZM110.717 165V154.696H113.013V165H110.717ZM124.454 165V162.732H124.076V160.268C124.076 159.876 123.983 159.582 123.796 159.386C123.609 159.19 123.311 159.092 122.9 159.092C122.695 159.092 122.424 159.097 122.088 159.106C121.752 159.115 121.407 159.129 121.052 159.148C120.697 159.167 120.375 159.185 120.086 159.204V157.314C120.301 157.295 120.553 157.277 120.842 157.258C121.131 157.239 121.43 157.225 121.738 157.216C122.046 157.207 122.335 157.202 122.606 157.202C123.39 157.202 124.048 157.314 124.58 157.538C125.121 157.762 125.532 158.103 125.812 158.56C126.092 159.008 126.232 159.587 126.232 160.296V165H124.454ZM122.004 165.196C121.453 165.196 120.968 165.098 120.548 164.902C120.137 164.706 119.815 164.426 119.582 164.062C119.349 163.689 119.232 163.245 119.232 162.732C119.232 162.172 119.377 161.715 119.666 161.36C119.955 160.996 120.361 160.73 120.884 160.562C121.407 160.385 122.009 160.296 122.69 160.296H124.328V161.542H122.676C122.284 161.542 121.981 161.64 121.766 161.836C121.561 162.023 121.458 162.279 121.458 162.606C121.458 162.914 121.561 163.166 121.766 163.362C121.981 163.549 122.284 163.642 122.676 163.642C122.928 163.642 123.152 163.6 123.348 163.516C123.553 163.423 123.721 163.269 123.852 163.054C123.983 162.839 124.057 162.541 124.076 162.158L124.608 162.718C124.561 163.25 124.431 163.698 124.216 164.062C124.011 164.426 123.721 164.706 123.348 164.902C122.984 165.098 122.536 165.196 122.004 165.196ZM128.132 165V157.328H129.91V160.618H129.784C129.784 159.834 129.882 159.181 130.078 158.658C130.284 158.135 130.592 157.743 131.002 157.482C131.413 157.221 131.912 157.09 132.5 157.09H132.598C133.494 157.09 134.176 157.384 134.642 157.972C135.118 158.551 135.356 159.433 135.356 160.618V165H133.116V160.492C133.116 160.081 132.995 159.745 132.752 159.484C132.51 159.223 132.183 159.092 131.772 159.092C131.352 159.092 131.012 159.227 130.75 159.498C130.498 159.759 130.372 160.105 130.372 160.534V165H128.132ZM140.779 165.266C140.126 165.266 139.547 165.154 139.043 164.93C138.548 164.706 138.133 164.407 137.797 164.034C137.47 163.651 137.218 163.227 137.041 162.76C136.873 162.284 136.789 161.799 136.789 161.304V161.024C136.789 160.511 136.873 160.021 137.041 159.554C137.218 159.078 137.47 158.653 137.797 158.28C138.124 157.907 138.53 157.613 139.015 157.398C139.51 157.174 140.07 157.062 140.695 157.062C141.516 157.062 142.207 157.249 142.767 157.622C143.336 157.986 143.77 158.467 144.069 159.064C144.368 159.652 144.517 160.296 144.517 160.996V161.752H137.727V160.478H143.159L142.431 161.066C142.431 160.609 142.366 160.217 142.235 159.89C142.104 159.563 141.908 159.316 141.647 159.148C141.395 158.971 141.078 158.882 140.695 158.882C140.303 158.882 139.972 158.971 139.701 159.148C139.43 159.325 139.225 159.587 139.085 159.932C138.945 160.268 138.875 160.683 138.875 161.178C138.875 161.635 138.94 162.037 139.071 162.382C139.202 162.718 139.407 162.979 139.687 163.166C139.967 163.353 140.331 163.446 140.779 163.446C141.19 163.446 141.526 163.367 141.787 163.208C142.048 163.049 142.226 162.853 142.319 162.62H144.377C144.265 163.133 144.046 163.591 143.719 163.992C143.392 164.393 142.982 164.706 142.487 164.93C141.992 165.154 141.423 165.266 140.779 165.266ZM146.099 165V154.78H148.353V165H146.099ZM145.189 156.432V154.78H148.353V156.432H145.189ZM153.33 165.238C152.238 165.238 151.384 165.014 150.768 164.566C150.152 164.118 149.825 163.488 149.788 162.676H151.776C151.813 162.919 151.958 163.138 152.21 163.334C152.471 163.521 152.858 163.614 153.372 163.614C153.764 163.614 154.086 163.549 154.338 163.418C154.599 163.278 154.73 163.082 154.73 162.83C154.73 162.606 154.632 162.429 154.436 162.298C154.24 162.158 153.89 162.06 153.386 162.004L152.784 161.948C151.86 161.855 151.164 161.598 150.698 161.178C150.24 160.758 150.012 160.221 150.012 159.568C150.012 159.027 150.147 158.574 150.418 158.21C150.688 157.846 151.062 157.571 151.538 157.384C152.023 157.197 152.574 157.104 153.19 157.104C154.179 157.104 154.977 157.323 155.584 157.762C156.19 158.191 156.508 158.817 156.536 159.638H154.548C154.51 159.386 154.38 159.176 154.156 159.008C153.932 158.831 153.6 158.742 153.162 158.742C152.816 158.742 152.541 158.807 152.336 158.938C152.13 159.069 152.028 159.246 152.028 159.47C152.028 159.685 152.116 159.848 152.294 159.96C152.471 160.072 152.76 160.151 153.162 160.198L153.764 160.254C154.706 160.357 155.439 160.618 155.962 161.038C156.484 161.458 156.746 162.023 156.746 162.732C156.746 163.245 156.606 163.693 156.326 164.076C156.046 164.449 155.649 164.739 155.136 164.944C154.622 165.14 154.02 165.238 153.33 165.238Z" fill="#333333"/>
</g>
<defs>
<filter id="filter0_d_465_301" x="0.599609" y="0" width="232.8" height="197" filterUnits="userSpaceOnUse" color-interpolation-filters="sRGB">
<feFlood flood-opacity="0" result="BackgroundImageFix"/>
<feColorMatrix in="SourceAlpha" type="matrix" values="0 0 0 0 0 0 0 0 0 0 0 0 0 0 0 0 0 0 127 0" result="hardAlpha"/>
<feMorphology radius="2" operator="erode" in="SourceAlpha" result="effect1_dropShadow_465_301"/>
<feOffset dy="2"/>
<feGaussianBlur stdDeviation="2"/>
<feColorMatrix type="matrix" values="0 0 0 0 0 0 0 0 0 0 0 0 0 0 0 0 0 0 0.1 0"/>
<feBlend mode="normal" in2="BackgroundImageFix" result="effect1_dropShadow_465_301"/>
<feBlend mode="normal" in="SourceGraphic" in2="effect1_dropShadow_465_301" result="shape"/>
</filter>
</defs>
</svg>
