<svg width="65" height="64" viewBox="0 0 65 64" fill="none" xmlns="http://www.w3.org/2000/svg">
<path d="M0.400391 32C0.400391 14.3269 14.7273 0 32.4004 0C50.0735 0 64.4004 14.3269 64.4004 32C64.4004 49.6731 50.0735 64 32.4004 64C14.7273 64 0.400391 49.6731 0.400391 32Z" fill="#F5FFF7"/>
<path d="M43.7337 35.3333C46.2171 32.9 48.7337 29.9833 48.7337 26.1667C48.7337 23.7355 47.768 21.4039 46.0489 19.6849C44.3298 17.9658 41.9982 17 39.5671 17C36.6337 17 34.5671 17.8333 32.0671 20.3333C29.5671 17.8333 27.5004 17 24.5671 17C22.1359 17 19.8043 17.9658 18.0852 19.6849C16.3662 21.4039 15.4004 23.7355 15.4004 26.1667C15.4004 30 17.9004 32.9167 20.4004 35.3333L32.0671 47L43.7337 35.3333Z" stroke="#333333" stroke-width="2" stroke-linecap="round" stroke-linejoin="round"/>
</svg>
