<svg width="65" height="64" viewBox="0 0 65 64" fill="none" xmlns="http://www.w3.org/2000/svg">
<path d="M0.600586 32C0.600586 14.3269 14.9275 0 32.6006 0C50.2737 0 64.6006 14.3269 64.6006 32C64.6006 49.6731 50.2737 64 32.6006 64C14.9275 64 0.600586 49.6731 0.600586 32Z" fill="#F5FFF7"/>
<path d="M30.9339 24.6682L20.9439 38.3182C20.7088 38.6393 20.5964 39.0339 20.627 39.4307C20.6576 39.8275 20.8291 40.2002 21.1106 40.4815L22.4722 41.8449C22.7578 42.1302 23.1372 42.3021 23.54 42.3288C23.9428 42.3554 24.3415 42.235 24.6622 41.9899L37.7506 31.9999" stroke="#333333" stroke-width="2" stroke-linecap="round" stroke-linejoin="round"/>
<path d="M40.1006 47.2901C38.4339 46.1667 36.5539 45.3334 34.2672 45.3334C30.8372 45.3334 27.7206 49.2601 24.2672 48.6667C20.8139 48.0734 19.6422 43.0517 21.7672 41.1667" stroke="#333333" stroke-width="2" stroke-linecap="round" stroke-linejoin="round"/>
<path d="M39.2669 31.9999C43.8693 31.9999 47.6003 28.269 47.6003 23.6666C47.6003 19.0642 43.8693 15.3333 39.2669 15.3333C34.6646 15.3333 30.9336 19.0642 30.9336 23.6666C30.9336 28.269 34.6646 31.9999 39.2669 31.9999Z" stroke="#333333" stroke-width="2" stroke-linecap="round" stroke-linejoin="round"/>
</svg>
