<svg width="65" height="64" viewBox="0 0 65 64" fill="none" xmlns="http://www.w3.org/2000/svg">
<path d="M0.800781 32C0.800781 14.3269 15.1277 0 32.8008 0C50.4739 0 64.8008 14.3269 64.8008 32C64.8008 49.6731 50.4739 64 32.8008 64C15.1277 64 0.800781 49.6731 0.800781 32Z" fill="#F5FFF7"/>
<path d="M39.4671 47V43.6667C39.4671 41.8986 38.7647 40.2029 37.5145 38.9526C36.2643 37.7024 34.5686 37 32.8005 37H22.8005C21.0323 37 19.3367 37.7024 18.0864 38.9526C16.8362 40.2029 16.1338 41.8986 16.1338 43.6667V47" stroke="#333333" stroke-width="2" stroke-linecap="round" stroke-linejoin="round"/>
<path d="M27.8005 30.3333C31.4824 30.3333 34.4671 27.3486 34.4671 23.6667C34.4671 19.9848 31.4824 17 27.8005 17C24.1186 17 21.1338 19.9848 21.1338 23.6667C21.1338 27.3486 24.1186 30.3333 27.8005 30.3333Z" stroke="#333333" stroke-width="2" stroke-linecap="round" stroke-linejoin="round"/>
<path d="M49.4678 46.9999V43.6666C49.4667 42.1894 48.975 40.7545 48.07 39.5871C47.1651 38.4196 45.898 37.5858 44.4678 37.2166" stroke="#333333" stroke-width="2" stroke-linecap="round" stroke-linejoin="round"/>
<path d="M39.4678 17.2166C40.9018 17.5837 42.1728 18.4177 43.0805 19.5871C43.9882 20.7564 44.4808 22.1946 44.4808 23.6749C44.4808 25.1552 43.9882 26.5934 43.0805 27.7627C42.1728 28.9321 40.9018 29.7661 39.4678 30.1332" stroke="#333333" stroke-width="2" stroke-linecap="round" stroke-linejoin="round"/>
</svg>
