<svg width="65" height="64" viewBox="0 0 65 64" fill="none" xmlns="http://www.w3.org/2000/svg">
<path d="M0.200195 32C0.200195 14.3269 14.5271 0 32.2002 0C49.8733 0 64.2002 14.3269 64.2002 32C64.2002 49.6731 49.8733 64 32.2002 64C14.5271 64 0.200195 49.6731 0.200195 32Z" fill="#F5FFF7"/>
<path d="M27.2002 42V20.3333L47.2002 17V38.6667" stroke="#333333" stroke-width="2" stroke-linecap="round" stroke-linejoin="round"/>
<path d="M22.2002 47C24.9616 47 27.2002 44.7614 27.2002 42C27.2002 39.2386 24.9616 37 22.2002 37C19.4388 37 17.2002 39.2386 17.2002 42C17.2002 44.7614 19.4388 47 22.2002 47Z" stroke="#333333" stroke-width="2" stroke-linecap="round" stroke-linejoin="round"/>
<path d="M42.2002 43.6667C44.9616 43.6667 47.2002 41.4282 47.2002 38.6667C47.2002 35.9053 44.9616 33.6667 42.2002 33.6667C39.4388 33.6667 37.2002 35.9053 37.2002 38.6667C37.2002 41.4282 39.4388 43.6667 42.2002 43.6667Z" stroke="#333333" stroke-width="2" stroke-linecap="round" stroke-linejoin="round"/>
</svg>
